/* XPM */
static char *21cal[] = {
/* width height num_colors chars_per_pixel */
"    32    32       16            1",
/* colors */
". c None",
"# c #0000fe",
"a c #000000",
"b c #ffcc9a",
"c c #cc9966",
"d c #ff9966",
"e c #cb6532",
"f c #983200",
"g c #222222",
"h c #330000",
"i c #bbbbbb",
"j c #fecb00",
"k c #555555",
"l c #aaaaaa",
"m c #eeeeee",
"n c #888888",
/* pixels */
"...#############aaaaaa..........",
"...#############bbbbbaa.........",
"...#############ccbbbada........",
"...#############ccbbbadda.......",
"...#############ccbbbaddda......",
"...abcccccccccccccbbbadddda.....",
"...abcccccccccccccbbbaaaaaaa....",
"...abbbbbbbbbbbbbbbbbbccccca....",
"...abbbbbefefefefefefefefcca....",
"...abbbbefefefefefefefefgbba....",
"...abbbfffffffffffffffhigbba....",
"...abbbfffffffffffffffhigcca....",
"...abbbfffjfffffffjfffhigcca....",
"...abbbfffffffffffffffhigcca....",
"...abbbhhhhhhhhhhhhhhhhigcca....",
"...abbbkllllllllllllllgigcca....",
"...abbbkmmmmmmmmmmmmmmkigcca....",
"...abbbkmmnaaanmnammmmkigcca....",
"...abbbkmmammmamaammmmkigcca....",
"...abbbkmmmmmmammammmmkigcca....",
"...abbbkmmmmmanmmammmmkigcca....",
"...abbbkmmmnanmmmammmmkigcca....",
"...abbbkmmnammmmmammmmkigcca....",
"...abbbkmmammmammammmmkigcca....",
"...abbbkmmaaaaamaaammmkigcca....",
"...abbbkmmmmmmmmmmmmmmkigcca....",
"...abbbkmmmmmmmmmmmmmmkggcca....",
"...abbbkmmmmmmmmmmmmmmkcccca....",
"...abbbkkkkkkkkkkkkkkkkcccca....",
"...abbbbbccccccccccccccccbba....",
"...aaaaaaaaaaaaaaaaaaaaaaaaa....",
"................................"
};
