/* XPM */
static char *21cal_ins[] = {
/* width height num_colors chars_per_pixel */
"    32    32       13            1",
/* colors */
". c None",
"# c #4682b4",
"a c #000000",
"b c #bbbbbb",
"c c #cc9966",
"d c #ffcc9a",
"e c #cb6532",
"f c #983200",
"g c #222222",
"h c #fecb00",
"i c #555555",
"j c #aaaaaa",
"k c #888888",
/* pixels */
"...#############aaaaaa..........",
"...#############bbbbbaa.........",
"...#############ccbbbada........",
"...#############ccbbbadda.......",
"...#############ccbbbaddda......",
"...abcccccccccccccbbbadddda.....",
"...abcccccccccccccbbbaaaaaaa....",
"...abbbbbbbbbbbbbbbbbbccccca....",
"...abbbbbefefefefefefefefcca....",
"...abbbbedededededededefgdda....",
"...abbbdddddddddddddddfbgdda....",
"...abbbdddddddddddddddfbgcca....",
"...abbbdddhdddddddhdddfbgcca....",
"...abbbdddddddddddddddfbgcca....",
"...abbbffffffffffffffffbgcca....",
"...abbbijjjjjjjjjjjjjjgbgcca....",
"...abbbibbbbbbbbbbbbbbibgcca....",
"...abbbibbkiiikbkibbbbibgcca....",
"...abbbibbibbbibiibbbbibgcca....",
"...abbbibbbbbbibbibbbbibgcca....",
"...abbbibbbbbikbbibbbbibgcca....",
"...abbbibbbkikbbbibbbbibgcca....",
"...abbbibbkibbbbbibbbbibgcca....",
"...abbbibbibbbibbibbbbibgcca....",
"...abbbibbiiiiibiiibbbibgcca....",
"...abbbibbbbbbbbbbbbbbibgcca....",
"...abbbibbbbbbbbbbbbbbiggcca....",
"...abbbibbbbbbbbbbbbbbicccca....",
"...abbbiiiiiiiiiiiiiiiicccca....",
"...abbbbbccccccccccccccccdda....",
"...aaaaaaaaaaaaaaaaaaaaaaaaa....",
"................................"
};
