/* XPM */
static char *env[] = {
/* width height num_colors chars_per_pixel */
"    32    32        6            1",
/* colors */
". c #000000",
"# c #00ff00",
"a c #bebebe",
"b c #a0522d",
"c c #2e8b57",
"d c None",
/* pixels */
"dddddddddddddddddddddddddddddddd",
"ddddddddddccdddddddddddddddddddd",
"ddddddddddcccd###ddddddddddddddd",
"ddddddccdccccc#b#cccdddddddddddd",
"ddddddcc.c#c#ccbcccccddcdddddddd",
"ddddcdccccc##.#b#cccccdcccdddddd",
"dddcccddccc#cccbb#ccccdcccdddddd",
"dddddcc.ccc#ccacb#cc.ccccccddddd",
"ddddcccccac#ccccccccdccdccccdddd",
"dddc#cdcbaadccaacc#cccc#c.ccdddd",
"dddc#ccc.bacccca#ccbccc##ccddddd",
"dddc#c#cc#caccccccacccc#cccddddd",
"dddc##bbc#caacccccac.c.cccdddddd",
"dddcc#cbcccccaaca#cccc#ccadddddd",
"dddccc##bcccccaaccccccccccdddddd",
"ddddccc#bccc#c#ccac##cc#dddddddd",
"dddddccccdc##cccca#ccc#ddddddddd",
"dddddbbd#dc#ccaccd###d#ddddddddd",
"dddddbdd#cc#cccccc#c##dddddddddd",
"dddddccdd#d#d.cccdd#ccdddddddddd",
"ddddd#dddddddccccddddddddddddddd",
"ddddddddddddd.cccddddddddddddddd",
"dddddddddddddcccccdddddddddddddd",
"dddddddddddddcacccdddddddddddddd",
"ddddddddddddd.acccdddddddddddddd",
"dddddddddddddcaccc.ddddddddddddd",
"ddddddddddddd.acccc.dddddddddddd",
"dcdcddddddd..acccccc....dddddddd",
"ddcd....cccaacccccccccccc....ddd",
"dddddddddddddddddddddddddddddddd",
"dddddddddddddddddddddddddddddddd",
"dddddddddddddddddddddddddddddddd"
};
