/* XPM */
static char * infinity_xpm[] = {
/* width height ncolors chars_per_pixel */
"32 32 2 1",
/* colors */
" 	s None	c None",
".	c red",
/* pixels */
"                                ",
"                                ",
"                                ",
"                                ",
"                                ",
"                                ",
"                                ",
"                                ",
"                                ",
"                                ",
"       ....        ....         ",
"      ......      ......        ",
"     ..    ..    ..    ..       ",
"    ..      ..  ..      ..      ",
"   ..        ....        ..     ",
"   ..         ..         ..     ",
"   ..         ..         ..     ",
"   ..        ....        ..     ",
"    ..      ..  ..      ..      ",
"     ..    ..    ..    ..       ",
"      ......      ......        ",
"       ....        ....         ",
"                                ",
"                                ",
"                                ",
"                                ",
"                                ",
"                                ",
"                                ",
"                                ",
"                                ",
"                                "};
