/* XPM */
static char * mailbox_xpm[] = {
/* width height ncolors chars_per_pixel */
"32 32 8 1",
/* colors */
" 	c None",
".	c black",
"X	c orange",
"o	c gold",
"O	c red",
"+	c blue",
"@	c SlateGrey",
"#	c DarkSlateGrey",
/* pixels */
"                ....            ",
"              ..XXXX.           ",
"             .XXXXXXo.          ",
"            .XXXXXoooo.         ",
"           .XXXXXoooooo.        ",
"          .XXXXXoooooooo.       ",
"         .XXXXXooooooooo..      ",
"        .XX..Xooooooooo.o.      ",
"       .X..oo.oooooooo.oo.      ",
"      .X.ooooo.oooooo.ooo.  OO  ",
"     .X.ooooooo.oooo.oooo. OOO  ",
"     ..ooooooooo.oo.ooooo.OOOO  ",
"     .ooooooooooo..ooooooOOOOO  ",
"     .o+o+ooooooo.ooooooOOOOOO  ",
"     .o+++oo+oooo.oooooOOOX OO  ",
"     .o+o+o+o+ooo.ooooOOOX  OO  ",
"     .o+o+o++o+o+.oooOOO@.  OO  ",
"     .oooooooo+o+.ooOOO@o.  O   ",
"     .ooooooooo++.oOOOOXo.      ",
"     .oooooooooo+.OOO@oo..      ",
"     .ooooooooooo.OO@ooo.       ",
"     .ooooooooooo.@@Xoo.        ",
"     .ooooooooooo.@@oo..        ",
"     .ooooooooooo.ooo..         ",
"     .ooooooooooo.ooo.          ",
"     .ooooooooooo.oo.           ",
"     ....oooooooo.oo.           ",
"        ...oooooo.o.#           ",
"           ........##           ",
"              ######@           ",
"              #####@@           ",
"              #####@@           "};
