/* XPM */
static char * open_lock_xpm[] = {
"42 17 4 1",
" 	s None	m None	c None",
".	s iconGray1	m white	c white",
"X	s iconGray4	m white	c gray",
"o	s iconGray7	m black	c black",
"                   .....XXX               ",
"                  ..ooooooXX              ",
"                  .ooXXXXooX              ",
"                         XooX             ",
"                         .ooX             ",
"                        .ooX              ",
"                        ooX               ",
"                           o              ",
"              .XXXXXXXXXXXoo              ",
"              .Xoooooooooooo              ",
"              .XXXXXXXXXXXoo              ",
"              .Xoooooooooooo              ",
"              .XXXXXXXXXXXoo              ",
"              .Xoooooooooooo              ",
"              .XXXXXXXXXXXoo              ",
"              .ooooooooooooo              ",
"                                          "};
