/* XPM */
static char *project[] = {
/* width height num_colors chars_per_pixel */
"    32    32        5            1",
/* colors */
". c None",
"# c #ff0000",
"a c #708090",
"b c #000000",
"c c #0000ff",
/* pixels */
"................................",
"................................",
"................................",
"................................",
"................................",
"................................",
"........#######.................",
"........##...###................",
"........##....##................",
"........##.aaaaaaa..............",
"........##.aa###aaa.............",
"........###aa##..aa.............",
"........##.aa.bbbbbbb...........",
"........##.aa.bbaaabbb..........",
"........##.aaabbaa..bb..........",
"........##.aa.bb.ccccccc........",
"........##.aa.bb.ccbbbccc.......",
"...........aa.bbbccbb..cc.......",
"...........aa.bb.cc....cc.......",
"...........aa.bb.cc...ccc.......",
"..............bb.ccccccc........",
"..............bb.cc.............",
"..............bb.cc.............",
".................cc.............",
".................cc.............",
".................cc.............",
"................................",
"................................",
"................................",
"................................",
"................................",
"................................"
};
