/* XPM */
static char * qsh_off_ins_xpm[] = {
/* width height ncolors chars_per_pixel */
"100 32 5 1",
/* colors */
" 	s None	c None",
".	c slategrey",
"X	c lightgrey",
"o	c black",
"O	c white",
/* pixels */
"                                                                                                    ",
"                         . . .                                                                      ",
"                         . . .                                                                      ",
"                         . . .                                                                      ",
"                        . .  .                                                                      ",
"             X    XXX   . . .                                                                       ",
"            XX   X   X  ......                                                                      ",
"           X X       X  .oO...                                                                      ",
"             X     XX   .OO...                                                                      ",
"             X    X     ......                                                                      ",
"             X   X..      ....                                                                      ",
"           XXXXX XXXXX  ......                   .....                       ..                     ",
"                    ..........                   ..  ..         ..           ..                     ",
"                     .........                   ..  ..         ..           ..                     ",
"                        ......                   ..  ..  ....  .....   ....  .....                  ",
"         XXX  XXXXX     ......                   .....      ..  ..    ..  .. ..  ..                 ",
"        X   X X         ......                   ..  ..  .....  ..    ..     ..  ..                 ",
"            X X XX      ......                   ..  .. ..  ..  ..    ..     ..  ..                 ",
"          XX  XX  X     ......                   ..  .. ..  ..  .. .. ..  .. ..  ..                 ",
"         X        X     ......                   .....   .....   ...   ....  ..  ..                 ",
"        X     X   X     ......                                                                      ",
"        XXXXX  XXX      .. ...                                                                      ",
"                        ..  ..                                                                      ",
"         ...     .     ...  ..                                                                      ",
"        .   .   ..     ...  ...                                                                     ",
"            .  . .     ..    ..                                                                     ",
"          ..  .  .     ..    ..                                                                     ",
"         .    .....    ..    ..                                                                     ",
"        .        .  .....  ....                                                                     ",
"        .....    .  .....  ....                                                                     ",
"                                                                                                    ",
"                                                                                                    "};
