/* XPM */
static char *qsh_on_ins[] = {
/* width height num_colors chars_per_pixel */
"   100    32        4            1",
/* colors */
". c #bfbfbf",
"# c #555555",
"a c #ffffff",
"b c #d3d3d3",
/* pixels */
"....................................................................................................",
"....................................................................................................",
".##############################.....................................................................",
".##a#a#aaa#aaa#aaa#aaa#########.....................................................................",
".###a###a##a###a###a#a#########.....................................................................",
".##a#a##a##aaa#a#a#a#a#########.....................................................................",
".##############################.....................................................................",
".#bbbbbbbbbbbbbbbbbbbbbbbbbbbb#.....................................................................",
".#bbbbbbbbbbbbbbbbbbbbbbbbbbbb#.....................................................................",
".#b###########bbbbbbbbbbbbbbbb#.....................................................................",
".#bbbbbbbbbbbbbbbbbbbbbbbbbbbb#.....................................................................",
".#b####bbbb#####bb######bbbbbb#.............................................##......................",
".#bbbbbbbbbbbbbbbbbb##bbbbbbbb#..##.................................##......##......................",
".#b#####bbb####bbb####bbbbbbbb#..##.................................##..............................",
".#bbbbbbbbbbbbbbbbbb##bbb######.#####...####..#####...####...####..#####...###...##..##..####.......",
".#b######bb######b######b##bb##..##....##..##.##..##.....##.##..##..##......##...##..##.##..##......",
".#bbbbbbbbbbbbbbbbbb##bbb##bb##..##....######.##......#####.##......##......##...##..##.######......",
".#b#####bbb####bbb######b##bb##..##....##.....##.....##..##.##......##......##....####..##..........",
".#bbbbbbbbbbbbbbbbbb##bbb##bb##..##.##.##..##.##.....##..##.##..##..##.##...##....####..##..##......",
".#b############bbb######b##bb##...###...####..##......#####..####....###..######...##....####.......",
".#bbbbbbbbbbbbbbbbbbbbbbbbbbbb#.....................................................................",
".#b##bbbbbbbbbbbbbbbbbbbbbbbbb#.....................................................................",
".#bbbbbbbbbbbbbbbbbbbbbbbbbbbb#.....................................................................",
".#b######bbbbbbb######bbbbbbbb#.....................................................................",
".##############################.....................................................................",
"....................................................................................................",
"....................................................................................................",
"....................................................................................................",
"....................................................................................................",
"....................................................................................................",
"....................................................................................................",
"...................................................................................................."
};
