/* XPM */
static char *qsh-off[] = {
/* width height num_colors chars_per_pixel */
"   100    32        6            1",
/* colors */
". c #000000",
"# c #000080",
"a c #808080",
"b c #c0c0c0",
"c c #0000ff",
"d c None",
/* pixels */
"dddddddddddddddddddddddddddddddddddddddddddddddddddddddddddddddddddddddddddddddddddddddddddddddddddd",
"dddddddddddddddddddddddddddddddddddddddddddddddddddddddddddddddddddddddddddddddddddddddddddddddddddd",
"dddddddddddddddddddddddddddddddddddddddddddddddddddddddddddddddddddddddddddddddddddddddddddddddddddd",
"dddddddddddddddddddddddddddddddddddddddddddddddddddddddddddddddddddddddddddddddddddddddddddddddddddd",
"dddddddddddddddd........dddddddddddddddddddddddddddddddddddddddddddddddddddddddddddddddddddddddddddd",
"ddddddddddddddd.dddddddb....dddddddddddddddddddddddddddddddddddddddddddddddddddddddddddddddddddddddd",
"dddd.......ddd.dddddddddb.ab...ddddddddddddddddddddddddddddddddddddddddddddddddddddddddddddddddddddd",
"ddddcccccc....dddddda..bbb.abdd...dddddddddddddddddddddddddddddddddddddddddddddddddddddddddddddddddd",
"ddddcccccc.adddddddb.dd.bbb.abbddb.ddddddddddddddddddddddddddddddddddddddddddddddddddddddddddddddddd",
"ddddcccccc.abddddda..ddd.......bbb.ddddddddddddddddddddddddddddddddddddddddddddddddddddddddddddddddd",
"ddddcccccc.abbdddb.dd..bba.dddd...dddddddddddddddddddddddddddddddddddddddddddddddddddddddddddddddddd",
"dddd#c#c#c.aabbbba..ddb...dddddddddddddddddddddddddddddddddddddddddddddddddddddddddddddddddddddddddd",
"ddddc#c#c#.aaabbb.dd..bba.dddddddddddddddddddddddddddddddddddddddddddddddddddddddddddddddddddddddddd",
"dddd######...#aab..ddb...ddddddddddddddddddddddddddddddddddddddddddddddddddddddddddddddddddddddddddd",
"dddd######.ddd..aaa..bbaddddddddddd.........dddddddddddddddddddddddddddddddddddd...ddddddddddddddddd",
"dddd......ddddddd.......ddddddddddd..........dddddddddddddddddd.dddddddddddddddd...ddddddddddddddddd",
"ddddddddddddddddddddddddddddddddddd...........dddddddddddddddd..dddddddddddddddd...ddddddddddddddddd",
"ddddddddddddddddddddddddddddddddddd...ddddd...ddddddddddddddd...dddddddddddddddd...ddddddddddddddddd",
"ddddddddddddddddddddddddddddddddddd...ddddd...ddddd......ddd......ddddd....ddddd...dd....ddddddddddd",
"ddddddddddddddddddddddddddddddddddd...ddddd...dddd........dd......ddd........ddd..........dddddddddd",
"ddddddddddddddddddddddddddddddddddd..........dddd..ddddd...dd...ddddd...dd...ddd....ddd....ddddddddd",
"ddddddddddddddddddddddddddddddddddd..........ddddddddd.....dd...dddd...dddd...dd...ddddd...ddddddddd",
"ddddddddddddddddddddddddddddddddddd...........ddddd........dd...dddd...ddddddddd...ddddd...ddddddddd",
"ddddddddddddddddddddddddddddddddddd...dddddd...ddd....dd...dd...dddd...ddddddddd...ddddd...ddddddddd",
"ddddddddddddddddddddddddddddddddddd...dddddd...dd...dddd...dd...dddd...ddddddddd...ddddd...ddddddddd",
"ddddddddddddddddddddddddddddddddddd...dddddd...dd...dddd...dd...dddd...dddd...dd...ddddd...ddddddddd",
"ddddddddddddddddddddddddddddddddddd............dd...ddd....dd...ddddd...dd...ddd...ddddd...ddddddddd",
"ddddddddddddddddddddddddddddddddddd...........dddd.........dd.....ddd........ddd...ddddd...ddddddddd",
"ddddddddddddddddddddddddddddddddddd..........dddddd....dd...dd....ddddd....ddddd...ddddd...ddddddddd",
"dddddddddddddddddddddddddddddddddddddddddddddddddddddddddddddddddddddddddddddddddddddddddddddddddddd",
"dddddddddddddddddddddddddddddddddddddddddddddddddddddddddddddddddddddddddddddddddddddddddddddddddddd",
"dddddddddddddddddddddddddddddddddddddddddddddddddddddddddddddddddddddddddddddddddddddddddddddddddddd"
};
