/* XPM */
static char *qsh_on[] = {
/* width height num_colors chars_per_pixel */
"   100    32        5            1",
/* colors */
". c None",
"# c #0000fe",
"a c #ffffff",
"b c #555555",
"c c #000000",
/* pixels */
"....................................................................................................",
"....................................................................................................",
".##############################.....................................................................",
".##a#a#aaa#aaa#aaa#aaa#########.....................................................................",
".###a###a##a###a###a#a#########.....................................................................",
".##a#a##a##aaa#a#a#a#a#########.....................................................................",
".##############################.....................................................................",
".#aaaaaaaaaaaaaaaaaaaaaaaaaaaa#.....................................................................",
".#aaaaaaaaaaaaaaaaaaaaaaaaaaaa#.....................................................................",
".#abbbbbbbbbbbaaaaaaaaaaaaaaaa#.....................................................................",
".#aaaaaaaaaaaaaaaaaaaaaaaaaaaa#.....................................................................",
".#abbbbaaaabbbbbaaccccccaaaaaa#.............................................cc......................",
".#aaaaaaaaaaaaaaaaaaccaaaaaaaa#..cc.................................cc......cc......................",
".#abbbbbaaabbbbaaabbccaaaaaaaa#..cc.................................cc..............................",
".#aaaaaaaaaaaaaaaaaaccaaaccccc#.ccccc...cccc..ccccc...cccc...cccc..ccccc...ccc...cc..cc..cccc.......",
".#abbbbbbaabbbbbbabbccbbaccaacc..cc....cc..cc.cc..cc.....cc.cc..cc..cc......cc...cc..cc.cc..cc......",
".#aaaaaaaaaaaaaaaaaaccaaaccaacc..cc....cccccc.cc......ccccc.cc......cc......cc...cc..cc.cccccc......",
".#abbbbbaaabbbbaaabbccbbaccaacc..cc....cc.....cc.....cc..cc.cc......cc......cc....cccc..cc..........",
".#aaaaaaaaaaaaaaaaaaccaaaccaacc..cc.cc.cc..cc.cc.....cc..cc.cc..cc..cc.cc...cc....cccc..cc..cc......",
".#abbbbbbbbbbbbaaaccccccaccaacc...ccc...cccc..cc......ccccc..cccc....ccc..cccccc...cc....cccc.......",
".#aaaaaaaaaaaaaaaaaaaaaaaaaaaa#.....................................................................",
".#abbaaaaaaaaaaaaaaaaaaaaaaaaa#.....................................................................",
".#aaaaaaaaaaaaaaaaaaaaaaaaaaaa#.....................................................................",
".#abbbbbbaaaaaaabbbbbbaaaaaaaa#.....................................................................",
".##############################.....................................................................",
"....................................................................................................",
"....................................................................................................",
"....................................................................................................",
"....................................................................................................",
"....................................................................................................",
"....................................................................................................",
"...................................................................................................."
};
