/* XPM */
static char *resources[] = {
/* width height num_colors chars_per_pixel */
"    64    64       11            1",
/* colors */
". c #000000",
"# c #800000",
"a c #808000",
"b c #000080",
"c c #008080",
"d c #808080",
"e c #c0c0c0",
"f c #ff0000",
"g c #ffff00",
"h c #0000ff",
"i c None",
/* pixels */
"iiiiiiiiiiiiiiiiiiiiiiiiiiiiiiiiiiiiiiiiiiiiiiiiiiiiiiiiiiiiiiii",
"iiiiiiiiiiiiiiiiiiiiiiiiiiiiiiiiiiiiiiiiiiiiiiiiiiiiiiiiiiiiiiii",
"iiiiiiiiiiiiiiiiiiiiiiiiiiiiiiiiiiiiiiiiiiiiiiiiiiiiiiiiiiiiiiii",
"iiiiiiiiiiiiiiiiiiiiiiiiiiiiiiiiiiiiiiiiiiiiiiiiiiiiiiiiiiiiiiii",
"iiiiiiiiiiiiiiiiiiiiiiiiiiiiiiiiiiiiiiiiiiiiiiiiiiiiiiiiiiiiiiii",
"iiiiiiiiiiiiiiiiiiiiiiiiiiiiiiiiiiiiiiiiiiiiiiiiiiiiiiiiiiiiiiii",
"iiiiiiiiiiiiiiiiiiiiiiiiiiiiiiiiiiiiiiiiiiiiiiiiiiiiiiiiiiiiiiii",
"iiiiiiiiiiiiiiiiiiiiiiiiiiiiiiiiiiiiiiiiiiiiiiiiiiiiiiiiiiiiiiii",
"iiiiiiiiiiiiiiiiiiiiiiiiiiiiiiiiiiiiiiiiiiiiiiiiiiiiiiiiiiiiiiii",
"iiiiiiiiiiiiiiiiiiiiiiiiiiiiiiiiiiiiiiiiiiiiiiiiiiiiiiiiiiiiiiii",
"iiiiiiiiiiiiiiiiiiiiiiiiiddccccccd.iiiiiiiiiiiiiiiiiiiiiiiiiiiii",
"iiiiiiiiiiiiiiiiiiiiiiidcchhhhhhhhc..iiiiiiiiiiiiiiiiiiiiiiiiiii",
"iiiiiiiiiiiiiiiiiiiiiicchhhhhhhhhhhh.iiiiiiiiiiiiiiiiiiiiiiiiiii",
"iiiiiiiiiiiiiiiiiiiiiechhhhhhhhhhhhhh.iiiiiiiiiiiiiiiiiiiiiiiiii",
"iiiiiiiiiiiiiiiiiiiiiechhhhhhhhhhhhhh.iiiiiiiiiiiii..iiiiiiiiiii",
"iiiiiiiiiiiiiiiiiiiiiecchhhhhhhhhhhhc.iiiiiiiiiiie.ggadeiiiiiiii",
"iiiiiiiiiiiiiiiiiiiiieccchhhhhhhhhhc..iiiiiiiiiie.gggggadiiiiiii",
"iiiiiiiiiiiiiiiiiiiiiidc.ccchhhhhcc..iiiiiiiiiiid.ggggggg.iiiiii",
"iiiiiiiiiiiiiiiiiiiiiiid...hhhhccc..iiiiiiiiiiiia.gggggggg.iiiii",
"iiiiiiiiiiiiiiiiiiiiiiidbic.......i.iiiiiiiiiiiia..gggggggg.iiii",
"iiiiiiiiiiiiiiiiiiiiiiidbiiiiiiiiii.iiiiiiiiiiid.i.ggggggggg.iii",
"iiiiiiiiiiiiiiiiiiiiiiidbiiiiiiiiii.iiiiiiiiiidaiii..ggggggg.iii",
"iiiiiiiiiiiiiiiiiiiiiiiebiiiiiiiiii.iiiiiiiiidaiiiiia.ggggggg.ii",
"iiiiiiiiiie#...iiiiiiiiebiiiiiiiiii.iiiiiiiidaiiiiiii..gggggg.ii",
"iiiiiiiie#ffff...iiiiiiebiiiiiiiiii.eiiiiiidaiiiiiiiiia..gggg.ii",
"iiiiiiid#ffffff#.iiiiiiebiiiiiiiiii.eiiiii#aiiiiiiiiiiiaa.ggg.ii",
"iiiiiidffffffff##.iiiiiebiiiiiiiiii.eiiid.aiiiiiiiiiiiiiia...iii",
"iiiiidffffffff#f#.iiiiidbiiiiiiiiii.ciiaaaiiiiiiiiiiiiii....iiii",
"iiiiefffffffff#f#.iiiiibbiiiiiiiiii.beia.iiiiiiiiiiiiiia.iiiiiii",
"iiii#ffffffff##f##.iiiic.iiiiiiiiii.cei..iiiiiiiiiiiiia.iiiiiiii",
"iiidfffffffff#f#ii.diiid..biiiiiibb..iia.aiiiiiiiiiiii.iiiiiiiii",
"iiidffffffffff#iiiii.iii..b........deiiea.iiiiiiiiiia.iiiiiiiiii",
"iii#fffffff#f#iiiiii.diiieed...ccdeiiiiia.aiiiiiiiia.iiiiiiiiiii",
"iii#fffff##fiiiiiiiiii.iiiiii..eiiiiiiiieaa.iiiiiia.iiiiiiiiiiii",
"iiie#####ffiiiiiiiiiiii.deiii..eiiiiiiiie.aa.iiiia.iiiiiiiiiiiii",
"iiiie##f#iiiiiiiiiiiiii...eii..eiiiiiiie...da..a.a.iiiiiiiiiiiii",
"iiiiiiedd#iiiiiiiiiiiiii#.dii..eiiiiiie......aaaa..iiiiiiiiiiiii",
"iiiiiiiiid#iiiiiiiiiiiiii.dii..eiiiiii..diiii....iiiiiiiiiiiiiii",
"iiiiiiiiiid#iiiiiiiiiiiii.eii..eiiiii..eiiiiiiiiiiiiiiiiiiiiiiii",
"iiiiiiiiiiid#iiiiiiiiiii#.iii..eiiii..eiiiiiiiiiiiiiiiiiiiiiiiii",
"iiiiiiiiiiiid#iiiiiiiiii.diii..eiiid.eiiiiiiiiiiiiiiiiiiiiiiiiii",
"iiiiiiiiiiiiid#iiiiiiii..iiiii.eii..eiiiiiiiiiiiiiiiiiiiiiiiiiii",
"iiiiiiiiiiiiiid#iiiiii..eiiiii.eid.iiiiiiiiiiiiiiiiiiiiiiiiiiiii",
"iiiiiiiiiiiiiie.iiiii....eiiii.e..iiiiiiiiiiiiiiiiiiiiiiiiiiiiii",
"iiiiiiiiiiiiiiid..#..die..eiii..diiiiiiiiiiiiiiiiiiiiiiiiiiiiiii",
"iiiiiiiiiiiiiiiiddddiiiie..eii..iiiiiiiiiiiiiiiiiiiiiiiiiiiiiiii",
"iiiiiiiiiiiiiiiiiiiiiiiiii.eee.iiiiiiiiiiiiiiiiiiiiiiiiiiiiiiiii",
"iiiiiiiiiiiiiiiiiiiiiiiiiii.dediiiiiiiiiiiiiiiiiiiiiiiiiiiiiiiii",
"iiiiiiiiiiiiiiiiiiiiiiiiiiii.ddiiiiiiiiiiiiiiiiiiiiiiiiiiiiiiiii",
"iiiiiiiiiiiiiiiiiiiiiiiiiiiii..iiiiiiiiiiiiiiiiiiiiiiiiiiiiiiiii",
"iiiiiiiiiiiiiiiiiiiiiiiiiiiiiiediiiiiiiiiiiiiiiiiiiiiiiiiiiiiiii",
"iiiiiiiiiiiiiiiiiiiiiiiiiiiiiii..iiiiiiiiiiiiiiiiiiiiiiiiiiiiiii",
"iiiiiiiiiiiiiiiiiiiiiiiiiiiiiiiii.iiiiiiiiiiiiiiiiiiiiiiiiiiiiii",
"iiiiiiiiiiiiiiiiiiiiiiiiiiiiiiiiii.iiiiiiiiiiiiiiiiiiiiiiiiiiiii",
"iiiiiiiiiiiiiiiiiiiiiiiiiiiiiiiiiii.iiiiiiiiiiiiiiiiiiiiiiiiiiii",
"iiiiiiiiiiiiiiiiiiiiiiiiiiiiiiiiiiiiiiiiiiiiiiiiiiiiiiiiiiiiiiii",
"iiiiiiiiiiiiiiiiiiiiiiiiiiiiiiiiiiiiiiiiiiiiiiiiiiiiiiiiiiiiiiii",
"iiiiiiiiiiiiiiiiiiiiiiiiiiiiiiiiiiiiiiiiiiiiiiiiiiiiiiiiiiiiiiii",
"iiiiiiiiiiiiiiiiiiiiiiiiiiiiiiiiiiiiiiiiiiiiiiiiiiiiiiiiiiiiiiii",
"iiiiiiiiiiiiiiiiiiiiiiiiiiiiiiiiiiiiiiiiiiiiiiiiiiiiiiiiiiiiiiii",
"iiiiiiiiiiiiiiiiiiiiiiiiiiiiiiiiiiiiiiiiiiiiiiiiiiiiiiiiiiiiiiii",
"iiiiiiiiiiiiiiiiiiiiiiiiiiiiiiiiiiiiiiiiiiiiiiiiiiiiiiiiiiiiiiii",
"iiiiiiiiiiiiiiiiiiiiiiiiiiiiiiiiiiiiiiiiiiiiiiiiiiiiiiiiiiiiiiii",
"iiiiiiiiiiiiiiiiiiiiiiiiiiiiiiiiiiiiiiiiiiiiiiiiiiiiiiiiiiiiiiii"
};
