/* XPM */
static char *rightarrow[] = {
/* width height num_colors chars_per_pixel */
"    35    19        4            1",
/* colors */
". c None",
"# c #ff0000",
"a c #cd0000",
"b c #ee0000",
/* pixels */
".........................#.........",
".........................##........",
".........................###.......",
".........................####......",
"a.aa.aab.abbb.bbbbb.bbb#b#####.....",
"a.aa.aaa.babb.bbbbb.bbbb#b#####....",
"a.aa.aab.abbb.bbbbb.bbb#b#######...",
"a.aa.aaa.babb.bbbbb.bbbb#b#######..",
"a.aa.aab.abbb.bbbbb.bbb#b#########.",
"a.aa.aaa.babb.bbbbb.bbbb#b#########",
"a.aa.aab.abbb.bbbbb.bbb#b#########.",
"a.aa.aaa.babb.bbbbb.bbbb#b#######..",
"a.aa.aab.abbb.bbbbb.bbb#b#######...",
"a.aa.aaa.babb.bbbbb.bbbb#b#####....",
"a.aa.aab.abbb.bbbbb.bbb#b#####.....",
".........................####......",
".........................###.......",
".........................##........",
".........................#........."
};
