/* XPM */
static char *script_file_ins[] = {
/* width height num_colors chars_per_pixel */
"    32    32        5            1",
/* colors */
". c None",
"# c #708090",
"a c #d3d3d3",
"b c #f5deb3",
"c c #6699ff",
/* pixels */
"....###################.........",
"....#aaaaaaaaaaaaaaaaa##........",
"....#aaaaaaaaaaaaaaaaa#b#.......",
"....#aaaaaaaaaaaaaaaaa#bb#......",
"....#aaaaaaaaaaaaaaaaa#bbb#.....",
"....#aaaccccccccccccaa#bbbb#....",
"....#aaaaaaaaaaaaaaaaa#######...",
"....#aaacccccccccccaaaaaaaaa#...",
"....#aaaaaaaaaaaaaaaaaaaaaaa#...",
"....#aacccccccccccccaaaaaaaa#...",
"...###aaaaaaaaaaaaa#a#aaaaaa#...",
"..#.#a#aacccccccccc#caaaaaaa#...",
".#..#aaaaa###aaa###a#a#a##aa####",
".#..#aaac#ccc#c#cc#c#a##aa#a#..#",
"#...#aaaa#aaa##aaa#a#a#aaa#####.",
"#...#a#a#ccc#c#cc#c#a#aaa#a##...",
"#...##aa#aaa#a#aa#a#a#aaa#a##.#.",
".####aaaa###ccc###c#c#aaa#aa##..",
"....#aaaaaaaaaaaaaaaaaaaaaaa#...",
"....#aaaaccccccccccccaaaaaaa#...",
"....#aaaaaaaaaaaaaaaaaaaaaaa#...",
"....#aaaccccccccccccaaaaaaaa#...",
"....#aaaaaaaaaaaaaaaaaaaaaaa#...",
"....#aaaaccccccccccccaaaaaaa#...",
"....#aaaaaaaaaaaaaaaaaaaaaaa#...",
"....#aaacccccccccaaaaaaaaaaa#...",
"....#aaaaaaaaaaaaaaaaaaaaaaa#...",
"....#aaaaaaaaaaaaaaaaaaaaaaa#...",
"....#aaaaaaaaaaaaaaaaaaaaaaa#...",
"....#aaaaaaaaaaaaaaaaaaaaaaa#...",
"....#aaaaaaaaaaaaaaaaaaaaaaa#...",
"....#########################..."
};
