/* XPM */
static char * seconds_xpm[] = {
/* width height ncolors chars_per_pixel */
"32 32 3 1",
/* colors */
" 	s None	c None",
".	c black",
"X	c red",
/* pixels */
"                                ",
"        .            .     ...  ",
"       ..            ..   .   . ",
"      ....   .....  ....  .     ",
"        .....  .  ....     ...  ",
"         .     .     .        . ",
"       ..      .      ..  .   . ",
"      .            .    .  ...  ",
"      ..          .     .       ",
"     .  .         .    . .      ",
"    .            .    .   .     ",
"    .            .        .     ",
"    .           .         .     ",
"   .            .          .    ",
"   .           .           .    ",
"   ....       .X.       ....    ",
"   .          X.           .    ",
"   .         X  .          .    ",
"    .        X   .        .     ",
"    .       X    .        .     ",
"    .      X      .       .     ",
"     .  . X        .  .  .      ",
"      ..  X            ..       ",
"      .  X              .       ",
"       .X      .      ..        ",
"         .     .     .          ",
"          ...  .  ...           ",
"             .....              ",
"                                ",
"                                ",
"                                ",
"                                "};
