/* XPM */
static char *shell_ins[] = {
/* width height num_colors chars_per_pixel */
"    32    32        4            1",
/* colors */
". c #bfbfbf",
"# c #d3d3d3",
"a c #7f7f7f",
"b c #bfbfbf",
/* pixels */
"................................",
"................................",
".......###........###...........",
".......#.#aa......#.#aa.........",
".......#.#aab.....#.#aab........",
".......#.#aab.....#.#aab........",
".......#.#aab.....#.#aab........",
".......#.#aab.....#.#aab........",
".......#.#aab.....#.#aab........",
".......#.#aab.....#.#aab........",
".#######.##########.#######.....",
".#........................#aa...",
".#######.##########.#######aab..",
"...aaaa#.#aaaaaaaa#.#aaaaaaaab..",
"...aaaa#.#aaaaaaaa#.#aaaaaaaab..",
"....bbb#.#aabbbbbb#.#aabbbbbbb..",
".......#.#aa......#.#aab........",
".......#.#aa......#.#aab........",
".#######.##########.#######.....",
".#........................#aa...",
".#######.##########.#######aab..",
"...aaaa#.#aaaaaaaa#.#aaaaaaaab..",
"...aaaa#.#aaaaaaaa#.#aaaaaaaab..",
"....bbb#.#aabbbbbb#.#aabbbbbbb..",
".......#.#aab.....#.#aab........",
".......#.#aab.....#.#aab........",
".......#.#aab.....#.#aab........",
".......#.#aab.....#.#aab........",
".......###aab.....###aab........",
"........aaaab......aaaab........",
"........aaaab......aaaab........",
"................................"
};
