/* XPM */
static char *stderror_ins[] = {
/* width height num_colors chars_per_pixel */
"    32    32        5            1",
/* colors */
". c None",
"# c #000000",
"a c #7f7f7f",
"b c #b03060",
"c c #d3d3d3",
/* pixels */
".........##############.........",
"....#####aaaaaaaaaaaaaa####.....",
"..##aaaaaaaaaaaaaaaaaaaaaaa##...",
".#aaaaaaaaaaaaaaaabababaaaaaa##.",
"#aaaaaaaaaaaaaaaaabababababaaaa#",
"#aaaaaaaaaaaaaaaaababababababaa#",
"#aaaaaaaaaaaaaaaaababababababaa#",
"##aaaaaaaaaaaaaaaababababababaa#",
"#c##aaaaaaaaaaaaaababababababaa#",
"#ccc##aaaaaa#aaaaababababababaa#",
"#ccccc###aaa##aaaababababababaa#",
"#cbcccccc####c#aaaaaaaaabababaa#",
"#cbcbcccccccccc#aaaaaaaaaaaabaa#",
"#cbcbcbcbccccccc#abababaaaaaaaa#",
"#cbcbcbcbcccccccc#bababababaaaa#",
"#cccbcbccccccccccc#abababababaa#",
"#cbcbcbcbcccccccccc#bababababaa#",
"#cbcbcccbccccccccccc#ababababaa#",
"#cbcccbcbcccccccccccc#babababaa#",
"#cbcbcbccccccccccccccc#abababaa#",
"#cccbcbcbcccccccccccccc#bababaa#",
"#cbcbcccbccccccccccccc#aaababaa#",
"#cbcbcbcbcccccccccccc#aaaaaabaa#",
"#cbcccbccccccccccccc#####aaaaaa#",
"#cccbcbcbcccccccccc#.....###aaa#",
".#ccccbcbccccccccc#.........##a#",
"..##ccccccccccccc#............##",
"....##cccccccccc#..............#",
"......###cccccc#................",
".........####c#.................",
"............##..................",
"............#..................."
};
