/* XPM */
static char *time[] = {
/* width height num_colors chars_per_pixel */
"    32    32        4            1",
/* colors */
". c None",
"# c #0000ff",
"a c #000000",
"b c #ff0000",
/* pixels */
"................................",
".....#####......................",
"...#########....................",
"..####.a.####...................",
"..##...a...##...................",
".###...a...###.......#####......",
".##....a....##.....#########....",
".##...aaaaaa##....####...####...",
".##....a....##....##.......##...",
".###.......###...###.......###..",
"..##.......##....##....b....##..",
"..####...####....##...bbbbbb##..",
"...#########.....##....b....##..",
".....#####.......###...b...###..",
"..................##...b...##...",
"..................####.b.####...",
"...................#########....",
".....................#####......",
"................................",
"................................",
"................................",
"................................",
".....aaaaa...a..................",
".......a........................",
".......a....aa...aa.a...aaa.....",
".......a.....a...a.a.a.a...a....",
".......a.....a...a.a.a.aaaaa....",
".......a.....a...a.a.a.a........",
".......a....aaa..a...a..aaa.....",
"................................",
"................................",
"................................"
};
