/* XPM */
static char *calconf[] = {
/* width height num_colors chars_per_pixel */
"    64    64        4            1",
/* colors */
". c None",
"# c #000000",
"a c #800000",
"b c #808080",
/* pixels */
"................................................................",
"................................................................",
"................................................................",
"................................................................",
"................................................................",
"................................................................",
"................................................................",
"................................................................",
"................................................................",
"................................................................",
".......................b#.b#b.#b.b#..#b##.......................",
".......................#..#..bb..#..#...b#......................",
"......................#b..b..b..bb..b....#......................",
"......................#b..#b.bb..#..#....#......................",
".......................#bbb#bb#b..#bb#b..b......................",
"......................b.b#.##b.#b.##.b#b........................",
"......................#bbb.bb..b..b...bb.b#.....................",
"......................#b...............####.....................",
".....................b#b...............####.....................",
".....................b#...............b####.....................",
"....................b##...............bb##b.....................",
"....................b#b...............#b##......................",
"....................##................b###......................",
"...................b#b...............#b###......................",
"...................##................#b###......................",
"..............bb..b#b...............b#b##b......................",
"...........b.bb...##................#bb##b......................",
"............b#b..b#b................#.###b......................",
".........b.b#b...##................##bb##b......................",
".......b..b##...##................b#b#b###......................",
".........b#bb..b#.................#bb#.###......................",
"..........b...bb.................##.#b.###......................",
"................................b#.a#..###......................",
"...............bbbbbbbb........b#..#b..###......................",
"...............b################..##b.b###b.....................",
"...............bbbbbbbbbbbbbbbb...#b..b####.....................",
"..................bbbbbbbbb......##b..b#b##.....................",
"...............b##################b...b#b##.....................",
".....................#bbbbb#######....b#b##b....................",
"....................b#.....bbbbbbb....b#b##b....................",
"....................b#.....####.......b#.b#b....................",
"....................b#b#bbbbb######bbb##.b#b....................",
".....................bbb......bbbbb#####.b#.....................",
"......................................bb........................",
"................................................................",
"................................................................",
"................................................................",
"................................................................",
"................................................................",
"................................................................",
"....####............##.........................##...............",
"..#######...........##.........................##...............",
"..##...###..........##.........................##...............",
".##.....#....####...##....###....##.###.....##.##...####...##.##",
".##.........######..##...#####...#######...######..######..#####",
".##.............##..##..##...##..###..##..###.###......##..###..",
".##...........####..##..#######..##...##..##...##....####..##...",
".##.....#....##.##..##..#######..##...##..##...##...##.##..##...",
"..##...###..##..##..##..##.......##...##..###.###..##..##..##...",
"..#######...######..##...######..##...##...######..######..##...",
"....####.....###.##.##....####...##...##....##.##...###.##.##...",
"................................................................",
"................................................................",
"................................................................"
};
