/* XPM */
static char * toolbar_limitrule_xpm[] = {
/* width height num_colors chars_per_pixel */
"64 64 3 1",
/* colors */
"c	c None",
".	c #008080",
"X	c black",
/* pixels */
"cccccccccccccccccccccccccccccccccccccccccccccccccccccccccccccccc",
"cccccccccccccccccccccccccccccccccccccccccccccccccccccccccccccccc",
"cccccccccccccccccccccccccccccccccccccccccccccccccccccccccccccccc",
"cccccccccccccccccccccccccccccccccccccccccccccccccccccccccccccccc",
"cccccccccccccccccccccccccccccccccccccccccccccccccccccccccccccccc",
"cccccccccccccccccccccccccccccccccccccccccccccccccccccccccccccccc",
"cccccccccccccccccccccccccccccccccccccccccccccccccccccccccccccccc",
"cccccccccccccccccccccccccccccccccccccccccccccccccccccccccccccccc",
"ccccccccccccccccccccccccccc....................ccccccccccccccccc",
"cccccccccccccccccccccccccc......................cccccccccccccccc",
"ccccccccccccccccccccccccc........................ccccccccccccccc",
"cccccccccccccccccccccccc..........................cccccccccccccc",
"ccccccccccccccccccccccc............................ccccccccccccc",
"cccccccccccccccccccccc..............................cccccccccccc",
"ccccccccccccccccccccc................................ccccccccccc",
"cccccccccccccccccccc................................cccccccccccc",
"cccccccccccccccccccc...............................ccccccccccccc",
"cccccccccccccccccccc..............................cccccccccccccc",
"cccccccccccccccccccc.............................ccccccccccccccc",
"cccccccccccccccccccc............................cccccccccccccccc",
"cccccccccccccccccccc...........................ccccccccccccccccc",
"cccccccccccccccccccc...............ccccccccccccccccccccccccccccc",
"cccccccccccccccccccc...............ccccccccccccccccccccccccccccc",
"cccccccccccccccccccc...............ccccccccccccccccccccccccccccc",
"cccccccccccccccccccc...............ccccccccccccccccccccccccccccc",
"cccccccccccccccccccc...............ccccccccccccccccccccccccccccc",
"cccccccccccccccccccc...............ccccccccccccccccccccccccccccc",
"cccccccccccccccccccc...............ccccccccccccccccccccccccccccc",
"cccccccccccccccccccc...............ccccccccccccccccccccccccccccc",
"cccccccccccccccccccc...............ccccccccccccccccccccccccccccc",
"cccccccccccccccccccc...............ccccccccccccccccccccccccccccc",
"cccccccccccccccccccc...............ccccccccccccccccccccccccccccc",
"cccccccccccccccccccc...............ccccccccccccccccccccccccccccc",
"cccccccccccccccccccc...............ccccccccccccccccccccccccccccc",
"cccccccccccccccccccc...............ccccccccccccccccccccccccccccc",
"cccccccccccccccccccc...............ccccccccccccccccccccccccccccc",
"cccccccccccccccccccc...............ccccccccccccccccccccccccccccc",
"cccccccccccccccccccc...............ccccccccccccccccccccccccccccc",
"cccccccccccccccccccc...............ccccccccccccccccccccccccccccc",
"cccccccccccccccccccc...............ccccccccccccccccccccccccccccc",
"cccccccccccccccccccccccccccccccccccccccccccccccccccccccccccccccc",
"cccccccccccccccccccccccccccccccccccccccccccccccccccccccccccccccc",
"cccccccccccccccccccccccccccccccccccccccccccccccccccccccccccccccc",
"cccccccccccccccccccccccccccccccccccccccccccccccccccccccccccccccc",
"cccccccccccccccccccccccccccccccccccccccccccccccccccccccccccccccc",
"cccccccccccccccccccccccccccccccccccccccccccccccccccccccccccccccc",
"cccccccccccccccccccccccccccccccccccccccccccccccccccccccccccccccc",
"cccccccccccccccccccccccccccccccccccccccccccccccccccccccccccccccc",
"cccccccccccccccccccccccccccccccccccccccccccccccccccccccccccccccc",
"cccccccccccccccccccccccccccccccccccccccccccccccccccccccccccccccc",
"cccccccccccccccccccccccccccccccccccccccccccccccccccccccccccccccc",
"cccccccccccccccccccccccccccccccccccccccccccccccccccccccccccccccc",
"cccccccccccccccccccccccccccccccccccccccccccccccccccccccccccccccc",
"XXccccccccccccccccccccccccccccccccccXXXXXccccccccXXXcccccccccccc",
"XXccccccXXccccccccccXXcccXXcccccccccXXccXXccccccccXXcccccccccccc",
"XXcccccccccccccccccccccccXXcccccccccXXccXXccccccccXXcccccccccccc",
"XXcccccXXXccXXXXXccXXXccXXXXXcccccccXXccXXXXccXXccXXcccXXXXccXXX",
"XXccccccXXccXXXXXXccXXcccXXcccccccccXXXXXcXXccXXccXXccXXccXXXXcc",
"XXccccccXXccXXXXXXccXXcccXXcccccccccXXXXccXXccXXccXXccXXXXXXcXXX",
"XXccccccXXccXXXXXXccXXcccXXcccccccccXXcXXcXXccXXccXXccXXcccccccX",
"XXccccccXXccXXXXXXccXXcccXXcXXccccccXXccXXXXcXXXccXXccXXccccXXcX",
"XXXXXXcXXXXcXXccXXcXXXXcccXXXcccccccXXccXXcXXXXXcXXXXccXXXXccXXX",
"cccccccccccccccccccccccccccccccccccccccccccccccccccccccccccccccc",
"cccccccccccccccccccccccccccccccccccccccccccccccccccccccccccccccc"};
