/* XPM */
static char *peconf[] = {
/* width height num_colors chars_per_pixel */
"    64    64        5            1",
/* colors */
". c #000000",
"# c #008080",
"a c #808080",
"b c #c0c0c0",
"c c None",
/* pixels */
"cccccccccccccccccccccccccccccccccccccccccccccccccccccccccccccccc",
"cccccccccccccccccccccccccccccccccccccccccccccccccccccccccccccccc",
"cccccccccccccccccccccccccccccccccccccccccccccccccccccccccccccccc",
"cccccccccccccccccccccccccccccccccccccccccccccccccccccccccccccccc",
"cccccccccccccccccccccccccccccccccccccccccccccccccccccccccccccccc",
"cccccccccccccccccccccccccccccccccccccccccccccccccccccccccccccccc",
"cccccccccccccccccccccccccccccccccccccccccccccccccccccccccccccccc",
"cccccccccccccccccccccccccccccccccccccccccccccccccccccccccccccccc",
"ccccccccccccccccc..................aaaabbccccccccccccccccccccccc",
"cccccccccccba....##bbbbbbbbbbbbbbbbbbb........bccccccccccccccccc",
"cccccccba#..bbbbbbbb.................bbbbbbbbb....cccccccccccccc",
"cccba##...bb........acccccccccca...cc.....bbbbbbbb....cccccccccc",
"c......bbb..abccb....ccccccccccaa..cccccccb.....bbbbb....ccccccc",
".bbbbbb.bcccccccbabb.ccccccccccabb.cccccccccca.......bbbb..ccccc",
".b.....ccccccccccabb.ccccccccccabb.cccccccccbabb.ccca..bbbb...cc",
"a.b..a.ccccccccccabb.ccccccccccabb.cccccccccaabb.cccccc...bbbb..",
"cccbbb.ccccccccccabb.ccccccccccabb.cccccccccabb.acccccccca.bbbbb",
"cccabb.ccccccccccabb.ccccccccccabb.cccccccccabb.cccccccccc....bb",
"cccabbb.cccccccccabb..cccccccccabb.ccccccccbabb.cccccccccaa....b",
"ccccabb.cccccccccabbb.cccccccccabb.ccccccccaabb.cccccccccabbba.c",
"ccccabb.ccccccccccabb.cccccccccabb.ccccccccabbb.ccccccccaabbb.cc",
"ccccabb..cccccccccabb.cccccccccabb.ccccccccabb.cccccccccabbb..cc",
"ccccaabb.cccccccccabb.cccccccccabb.cccccccbabb.cccccccccabb..ccc",
"cccccabb.cccccccccabb.cccccccccabb.cccccccaabb.ccccccccabbb.cccc",
"cccccabb..ccccccccabb.ccccccccaaba.cccccccabbb.ccccccccabb..cccc",
"cccccaabb.ccccccccabb.ccccccccabb.bcccccccabb.ccccccccabbb.ccccc",
"ccccccabb.ccccccccabba.cccccccabb.bccccccbabb.ccccccccabb..ccccc",
"ccccccabb..cccccccaaa..ccccccca...bccccccaabb.cccccccabbb.cccccc",
"ccccccabbb.ccccccca....................ccabbb.cccccccabbb.cccccc",
"cccccccaba.ccc.....a.##bbbbbbbbbbbbbbbb......cccccccaabbb.cccccc",
"ccccccc.......##bbbbbbbbbbbbbbbbbbbbbbbbbbb....cccccabbb.ccccccc",
"cccccccaa.#bbbbbbbb......................bbbbbb..ccbabbb.ccccccc",
"cccccca##bbb........cccccccccccccccccccc.....bbbb.....a.cccccccc",
"ccccca.#bbb....ccccccccccccccccccccccccccccca...bbb.....cccccccc",
"cccccb.#.b.ccccccccccccccccccccccccccccccccccccc...bbbbbcccccccc",
"ccccccccc.cccccccccccccccccccccccccccccccccccccccca...bbcccccccc",
"ccccccccccccccccccccccccccccccccccccccccccccccccccccca..bccccccc",
"ccccccccccccccccccccccccccccccccccccccccccccccccccccccc..ccccccc",
"cccccccccccccccccccccccccccccccccccccccccccccccccccccccccccccccc",
"cccccccccccccccccccccccccccccccccccccccccccccccccccccccccccccccc",
"cccccccccccccccccccccccccccccccccccccccccccccccccccccccccccccccc",
"cccccccccccccccccccccccccccccccccccccccccccccccccccccccccccccccc",
"cccccccccccccccccccccccccccccccccccccccccccccccccccccccccccccccc",
"cccccccccccccccccccccccccccccccccccccccccccccccccccccccccccccccc",
"cccccccccccccccccccccccccccccccccccccccccccccccccccccccccccccccc",
"cccccccccccccccccccccccccccccccccccccccccccccccccccccccccccccccc",
"cccccccccccccccccccccccccccccccccccccccccccccccccccccccccccccccc",
"cccccccccccccccccccccccccccccccccccccccccccccccccccccccccccccccc",
"cccccccccccccccccccccccccccccccccccccccccccccccccccccccccccccccc",
"cccccccccccccccccccccccccccccccccccccccccccccccccccccccccccccccc",
"cccccc.......ccccccccccccccccccccccccc..cc..ccccccccccc..ccccccc",
"cccccc........cccccccccccccccccccccccc..cc..ccccccccccc..ccccccc",
"cccccc..cccc..cccccccccccccccccccccccc..cc..ccccccccccc..ccccccc",
"cccccc..cccc..ccc....ccc..c..cc....ccc..cc..cccc...cccc..ccccccc",
"cccccc..cccc..cc......cc.....c......cc..cc..ccc.....ccc..ccccccc",
"cccccc.......ccccccc..cc...ccccccc..cc..cc..cc..ccc..cc..ccccccc",
"cccccc......cccccc....cc..cccccc....cc..cc..cc.......cc..ccccccc",
"cccccc..ccccccccc..c..cc..ccccc..c..cc..cc..cc.......cc..ccccccc",
"cccccc..cccccccc..cc..cc..cccc..cc..cc..cc..cc..ccccccc..ccccccc",
"cccccc..cccccccc......cc..cccc......cc..cc..ccc......cc..ccccccc",
"cccccc..ccccccccc...c..c..ccccc...c..c..cc..cccc....ccc..ccccccc",
"cccccccccccccccccccccccccccccccccccccccccccccccccccccccccccccccc",
"cccccccccccccccccccccccccccccccccccccccccccccccccccccccccccccccc",
"cccccccccccccccccccccccccccccccccccccccccccccccccccccccccccccccc"
};
