/* XPM */
static char *manop[] = {
/* width height num_colors chars_per_pixel */
"    64    64        9            1",
/* colors */
". c #000000",
"# c #800000",
"a c #808000",
"b c #000080",
"c c #008080",
"d c #808080",
"e c #c0c0c0",
"f c #ff0000",
"g c None",
/* pixels */
"gggggggggggggggggggggggggggggggggggggggggggggggggggggggggggggggg",
"gggggggggggggggggggggggggggggggggggggggggggggggggggggggggggggggg",
"gggggggggggggggggggggggggggggggggggggggggggggggggggggggggggggggg",
"gggggggggggggggggggggggggggggggggggggggggggggggggggggggggggggggg",
"gggggggggggggggggggggggggggggggggggggggggggggggggggggggggggggggg",
"gggggggggggggggggggggggggggggggggggggggggggggggggggggggggggggggg",
"gggggggggggggggggggggggggggggggggggggggggggggggggggggggggggggggg",
"gggggggggggggggggggggggggggggggggggggggggggggggggggggggggggggggg",
"ggggggggggggggggggggggggggggggggggge..........gggggggggggggggggg",
"ggggggggggggggggggggggggggggggggedd.ddgdddeeed#fffgggggggggggggg",
"gggggggggggggggggggggggggggggggdde.dgggedegggd#ffggggggggggggggg",
"ggggggggggggggggggggggggggggggddgd.degeedggegd.#gggggggggggggggg",
"gggggggggggggggggggggggggggggddggd.deeee.egeeddfgggggggggggggggg",
"ggggggggggggggggggggggggggeeddggge.deeee.egeee.#gggggggggggggggg",
"gggggggggggggggggggggggeddddeggggg.deeee.deeee#..ggggggggggggggg",
"ggggggggggggggggggggeebdddd.dggeggd.eeeed.eeedf..ggggggggggggggg",
"ggggggggggggggggggededdgggggd.eeggd.eeeee.eeecf#.ggggggggggggggg",
"gggggggggggggggeeed.edggeegggdbeegd.eeeed.eee.ff.ggggggggggggggg",
"ggggggggggggeedddededddeeeeege.deeedeedcddeee#ff.ggggggggggggggg",
"ggggggggggged..dddde..dd#beeggdbeeeded.de.dee#ff.ggggggggggggggg",
"ggggggggggeddeeed.e.ddddd.deege.eeeeedd...d#e#ff.ggggggggggggggg",
"ggggggggggd.eedddddddddddddeeee.eeeee..egggdg#ff.ggggggggggggggg",
"gggggggggd.edd.daedddddddddeeeeddeee..geddegg#ff.ggggggggggggggg",
"gggggggggdedadad#dddddd#ddddddeeeee.eeegggggg#ff.ggggggggggggggg",
"gggggggggddddad.dedddddddddddd..ddddedggggggg#ff#ggggggggggggggg",
"gggggggggdddddd.dddd.dddggggggeed#.ddgggggg..d##.ggggggggggggggg",
"gggggggggdd.dgdd.....dgggggggddddddddggggg.ed.ed.ggggggggggggggg",
"gggggggggee.ded#.ddggggggggdeeeedddd.ddgggg#.ddeaggggggggggggggg",
"gggggggggggdde#.dgggggggggdeeeeeeeeeeddaddgd.ddd#.gggggggggggggg",
"gggggggggggedd.dggggggggddeeeeeeeeeeeeeeeedddddd#.gggggggggggggg",
"ggggggggggggggggggggggd.eeeeeeeeeeeeeeeeeeeadddd#.gggggggggggggg",
"gggggggggggggggggggggddeeeeeeeeeeeeeeeeeeeeea.dd#.gggggggggggggg",
"gggggggggggggggggggd.eeeeeeeeeeeeeeeeeeeeeeee..d#.gggggggggggggg",
"gggggggggggggggddgedeeeeeeeeeeeeeeeeeeeeeeeeed....gggggggggggggg",
"gggggggggggggeddeededddeeeeeeeeeeeeeeeeeeeedddd..ggggggggggggggg",
"gggggggggggggd.eeeeeed..adeeeeeeeeeeeeeeed.adedd.ggggggggggggggg",
"gggggggggggged.deeeeeeeed...deeeeeeeeeeed.ddagdd.ggggggggggggggg",
"ggggggggggggged.deeeeeeeeee....ddeeeeed..d.ggggggggggggggggggggg",
"ggggggggggggggd#...dddeeeeeed.....dee..dd.gggggggggggggggggggggg",
"gggggggggggggggddd.....deeeeeeegedaeddd..ggggggggggggggggggggggg",
"ggggggggggggggggggddd....deeeeed...ddd..gggggggggggggggggggggggg",
"ggggggggggggggggggggddd....deed..ddee..dgggggggggggggggggggggggg",
"gggggggggggggggggggggggddd..add.deeed..ggggggggggggggggggggggggg",
"ggggggggggggggggggggggggggddddddaedd..gggggggggggggggggggggggggg",
"gggggggggggggggggggggggggggggdddddd##ggggggggggggggggggggggggggg",
"gggggggggggggggggggggggggggggggggggggggggggggggggggggggggggggggg",
"gggggggggggggggggggggggggggggggggggggggggggggggggggggggggggggggg",
"gggggggggggggggggggggggggggggggggggggggggggggggggggggggggggggggg",
"gggggggggggggggggggggggggggggggggggggggggggggggggggggggggggggggg",
"gggggggggggggggggggggggggggggggggggggggggggggggggggggggggggggggg",
"g..ggggg..ggggggggggggggggggggggggg..gg..ggggggggggggggggggggggg",
"g..ggggg..ggggggggggggggggggggggggg..gg..ggggggggggg.ggggggggggg",
"g..ggggg..ggggggggggggggggggggggggg..gggggggggggggg..ggggggggggg",
"g..ggggg..ggg....ggggg...gggg..g..g..gg..ggg....gg.....gg....ggg",
"g..ggggg..gg......ggg.....ggg.....g..gg..gg......g.....g......gg",
"g..ggggg..gg..gggggg..ggg..gg...ggg..gg..gg..gggggg..ggg..gggggg",
"g..ggggg..gg.....ggg.......gg..gggg..gg..gg.....ggg..ggg.....ggg",
"g..ggggg..ggg.....gg.......gg..gggg..gg..ggg.....gg..gggg.....gg",
"g...ggg...gggggg..gg..ggggggg..gggg..gg..gggggg..gg..ggggggg..gg",
"gg.......ggg......ggg......gg..gggg..gg..gg......gg....g......gg",
"ggg.....ggggg....ggggg....ggg..gggg..gg..ggg....gggg...gg....ggg",
"gggggggggggggggggggggggggggggggggggggggggggggggggggggggggggggggg",
"gggggggggggggggggggggggggggggggggggggggggggggggggggggggggggggggg",
"gggggggggggggggggggggggggggggggggggggggggggggggggggggggggggggggg"
};
