/* XPM */
static char *exit[] = {
/* width height num_colors chars_per_pixel */
"    64    64        5            1",
/* colors */
". c #000000",
"# c #800000",
"a c #808080",
"b c #c0c0c0",
"c c None",
/* pixels */
"cccccccccccccccccccccccccccccccccccccccccccccccccccccccccccccccc",
"cccccccccccccccccccccccccccaabcccccccccccccccccccccccccccccccccc",
"cccccccccccccccccccccccccb.....bbccccccccccccccccccccccccccccccc",
"cccccccccccccccccccccccccb..aa...abccccccccccccccccccccccccccccc",
"cccccccccccccccccccccccccb.aaaaaa...aacccccccccccccccccccccccccc",
"cccccccccccccccccccccccccb.aaaaaaaa....abccccccccccccccccccccccc",
"cccccccccccccccccccccccaa......aaaaaaa...aaccccccccccccccccccccc",
"cccccccccccccccccccaa......a......aaaaaaa...aacccccccccccccccccc",
"ccccccccccccccbba......aaaaa........aaaaaaa....abbcccccccccccccc",
"ccccccccccccaa.....aaaaaaaaa..........aaaaaaaa....abcccccccccccc",
"cccccccccb.......aaaaaaaaaaa.....ccaa...aaaaaaaa.....acccccccccc",
"cccccccccaaaaaaaaaaaaaaaa.aa.....ccccba....aaaaaaaa....ccccccccc",
"ccccccccca..aaaaaaaaaa....aa...a.cccccccba...aaaaaaa...acccccccc",
"ccccccccca..aaaaaaaa......aa.aba.ccccccccccaa..aaaa....ccccccccc",
"ccccccccca..aaaaa.....aa..aa.aba.ccccccccccccbb.aaaaa..ccccccccc",
"ccccccccca..aaa....aaaaa.aaa.aba.ccccccccccccccaaaaaa..ccccccccc",
"ccccccccca..aaa...aaaaaa.aaa.abaaccccccccccccccaaaaaa..ccccccccc",
"ccccccccca..aaa..aaaaaaa.aaa.bbabccccccccccccccaaaaaa..ccccccccc",
"ccccccccca..aaa..aaaaaaa.aba.bbabccccccccccccccaaaaaa..ccccccccc",
"ccccccccca..aaa..aaaaaaa.aba.bbabccccccccccccccaaaaaa.bccccccccc",
"ccccccccca..aaa.aaaaaaaa.aba.bb.bccccccccccccccaaaaaa.bccccccccc",
"ccccccccca..aaa.aaaaabb#.bba.bb.bccccccccccccccaaaaaa.bccccccccc",
"ccccccccca..aaa.aaaabbb.#bba.bb.bccccccccccccccaaaaa..bccccccccc",
"ccccccccca..aaaaaaabaaaabbba.bb.bcccccccccccccb.aaaa..bccccccccc",
"ccccccccca..aaaaabbbabbbbbba.bbaccccccccccccccb.aaaa..cccccccccc",
"ccccccccca..aaaabbbbbbbbbbb.bbbaccccccccccccccb.aaaa.acccccccccc",
"ccccccccca..aaabbbbbbbbbbbb.bbbaccccccccccccccb.aaaa.acccccccccc",
"ccccccccca..abbbbbbbbbbbbbb.bbbaccccccccccccccb.aaaa.acccccccccc",
"ccccccccca..babaabbbbbbbbbb.bbbaccccccccccccccb.aaaa.acccccccccc",
"ccccccccca..a...bcbbbbbbbbb.bbaaccccccccccccccb.aaaa.acccccccccc",
"ccccccccca..aaaacbabbbbbabb.bbaaccccccccccccccb.aaa..bcccccccccc",
"ccccccccca..aba.aaabba..#bb.bbaaccccccccccccccb.aaa..ccccccccccc",
"ccccccccca..abbaabba#...abb.bbaaccccccccccccccb.aaa..ccccccccccc",
"ccccccccca..abbbbbbbbaa.bbbabbacccccccccccccccb.aaa..ccccccccccc",
"ccccccccca..bbbbbbbbbba.bbaabbacccccccccccccccb.aaa..ccccccccccc",
"ccccccccca..bbbbbbbbbba.bbaabbacccccccccccccccb.aaa..ccccccccccc",
"ccccccccca..bbbbbbbbbba.bbaabbacccccccccccccccbaaaa.accccccccccc",
"ccccccccca.abbabbbbbbba.bbaabb.cccccccccccccccbaaaa.accccccccccc",
"ccccccccca.abbabbbbbbbaabbaaaa.cccccccccccccccbaaaa.accccccccccc",
"ccccccccca.abbabbbbbba.abba..abcccccccccccccccbaaaa.accccccccccc",
"ccccccccca.abb#bbba...abbbaaccccccccccccccccccbaaaa.accccccccccc",
"ccccccccca.abb.aa...abbbbbbcccccccccccccccccccbaaaa.accccccccccc",
"ccccccccca.abb...abbbbbbccccccccccccccccccccccbaaaa.cccccccccccc",
"ccccccccca.abbaabbbbbbacccccccccccccccccccccccbaaaa.cccccccccccc",
"ccccccccca.abbbbbbbbaabcccccccccccccccccccccccbaaa..cccccccccccc",
"ccccccccca.abbbbbaaabcccccccccccccccccccccccccbaaa..cccccccccccc",
"ccccccccca.abbba.abcccccccccccccccccccccccccccaaaa..cccccccccccc",
"ccccccccca.aba..bccccccccccccccccccccccccccccc.aaa.acccccccccccc",
"ccccccccca....bcccccccccccccccccccccccccccccccbaaa.bcccccccccccc",
"ccccccccccaabcccccccccccccccccccccccccccccccccccaa.bcccccccccccc",
"ccccccccccccccccccc........cccccccccc..ccccccccccaaccccccccccccc",
"ccccccccccccccccccc........cccccccccc..ccc.ccccccccccccccccccccc",
"ccccccccccccccccccc..cccccccccccccccccccc..ccccccccccccccccccccc",
"ccccccccccccccccccc..cccccccc..cc..cc..c.....ccccccccccccccccccc",
"ccccccccccccccccccc........cc..cc..cc..c.....ccccccccccccccccccc",
"ccccccccccccccccccc........ccc....ccc..cc..ccccccccccccccccccccc",
"ccccccccccccccccccc..cccccccccc..cccc..cc..ccccccccccccccccccccc",
"ccccccccccccccccccc..cccccccccc..cccc..cc..ccccccccccccccccccccc",
"ccccccccccccccccccc..ccccccccc....ccc..cc..ccccccccccccccccccccc",
"ccccccccccccccccccc........cc..cc..cc..cc....ccccccccccccccccccc",
"ccccccccccccccccccc........cc..cc..cc..ccc...ccccccccccccccccccc",
"cccccccccccccccccccccccccccccccccccccccccccccccccccccccccccccccc",
"cccccccccccccccccccccccccccccccccccccccccccccccccccccccccccccccc",
"cccccccccccccccccccccccccccccccccccccccccccccccccccccccccccccccc"
};
