/* XPM */
static char *complexconf[] = {
/* width height num_colors chars_per_pixel */
"    64    64        6            1",
/* colors */
". c #000000",
"# c #800000",
"a c #808080",
"b c #c0c0c0",
"c c #ff0000",
"d c None",
/* pixels */
"dddddddddddddddddddddddddddddddddddddddddddddddddddddddddddddddd",
"dddddddddddddddddddddddddddddddddddddddddddddddddddddddddddddddd",
"dddddddddddddddddddddddddddddddddddddddddddddddddddddddddddddddd",
"dddddddddddddddddddddddddddddddddddddddddddddddddddddddddddddddd",
"dddddddddddddddddddddddddddddddddddddddddddddddddddddddddddddddd",
"dddddddddddddddddddddddddddddddddddddddddddddddddddddddddddddddd",
"dddddddddddddddddddddddddddddddddddddddddddddddddddddddddddddddd",
"dddddddddddddddddddddddddddddddddddddddddddddddddddddddddddddddd",
"dddddddddddddddddddddddddddddddddddddddddddddddddddddddddddddddd",
"dddddddddddddddddddddddddddddddddddddddddddddddddddddddddddddddd",
"dddddddddddddddddddddddddddddddddddddddddddddddddddddddddddddddd",
"dddddddddddddddddddbbddddddddddddddddddddddddddddddddddddddddddd",
"ddddddddddddddddda....aaabbddddddddddddddddddddddddddddddddddddd",
"dddddddddddddddda..........aabdddddddddddddddddddddddddddddddddd",
"ddddddddddddddda.c#.baabbbaa....aabbdddddddddddddddddddddddddddd",
"ddddddddddddddda.cc.bbbbbbbbbbbaa...aaabdddddddddddddddddddddddd",
"dddddddddddddddda#c.abbbbbbbbbbbbbaaa....ddddddddddddddddddddddd",
"ddddddddddddddddb#c#abbbbbbbbbbbbbbbbbba.ddddddddddddddddddddddd",
"ddddddddddddddddb#c#abbbbbbbbbbbbbbbbbbb.bdddddddddddddddddddddd",
"dddddddddddddaa...##.abbbbbbbbbbbbbbbbbbaadddddddddddddddddddddd",
"dddddddddddba..a...#.abbbbbbbbbbbbbbbbbbb.dddddddddddddddddddddd",
"ddddddddddda.abbaa...abbbbbbbbbbbbbbbbbbb.dddddddddddddddddddddd",
"dddddddddda..bbbbbba.abbbbbbbbbbbbbbbbbbbabdb...abdddddddddddddd",
"ddddddddda...bbbbbbbabbbbbbbbbbbbbbbbbbbbaab..aa..addddddddddddd",
"ddddddddda##.abbbbbbbbbbbbbbbbbbbbbbbbbbbba..abbaa.adddddddddddd",
"dddddddddacc#abbbbbbbbbbbbbbbbbbbbbbbbbbbbaabbbbbba#bddddddddddd",
"dddddddddb#c#.abbbbbbbbbbbbbbbbbbbbbbbbbbbbbbbbbbbb#addddddddddd",
"ddddddddddacc#.......abbbbbbbbbbaaabbbbbbbbbbbbbbbba.ddddddddddd",
"ddddddddddb.#c######..bbbbbbbbbaa...abbbbbbbbbbbbbba.ddddddddddd",
"ddddddddddda..ccccccc#abbbbbbaabbba...abbbbbbbaaaaa..ddddddddddd",
"ddddddddddddb...####cc.bbbbbb..aaaba...bbbbbba......addddddddddd",
"dddddddddddddba.....cc#bbbbbb.....ab#..abbbba......adddddddddddd",
"ddddddddddddddddbbba#c#abbbbba.dddaaa..abbbbaabbbbdddddddddddddd",
"dddddddddddddddddddb#c#abbbbbbaaddaaa..bbbbba.bddddddddddddddddd",
"dddddddddddddddddddda#c#abbbbba.bdaaaabbbbbbb.bddddddddddddddddd",
"dddddddddddddddddddda.c#.aaaaa..ab.a.abbbbbbbaaddddddddddddddddd",
"ddddddddddddddddddddb.c#........ab.a..aaaaaaa#.bdddddddddddddddd",
"ddddddddddddddddddddb.#..#cccc.adb#............adddddddddddddddd",
"ddddddddddddddddddddda...#####.bdda..###c#####.bdddddddddddddddd",
"ddddddddddddddddddddddddbbbbbbdddda.cccccccc#.addddddddddddddddd",
"dddddddddddddddddddddddddddddddddda...........bddddddddddddddddd",
"dddddddddddddddddddddddddddddddddddbbbbbbbbbbbdddddddddddddddddd",
"dddddddddddddddddddddddddddddddddddddddddddddddddddddddddddddddd",
"dddddddddddddddddddddddddddddddddddddddddddddddddddddddddddddddd",
"dddddddddddddddddddddddddddddddddddddddddddddddddddddddddddddddd",
"dddddddddddddddddddddddddddddddddddddddddddddddddddddddddddddddd",
"dddddddddddddddddddddddddddddddddddddddddddddddddddddddddddddddd",
"dddddddddddddddddddddddddddddddddddddddddddddddddddddddddddddddd",
"dddddddddddddddddddddddddddddddddddddddddddddddddddddddddddddddd",
"dddddddddddddddddddddddddddddddddddddddddddddddddddddddddddddddd",
"ddddd....dddddddddddddddddddddddddddddddddd..ddddddddddddddddddd",
"ddd.......ddddddddddddddddddddddddddddddddd..ddddddddddddddddddd",
"ddd..ddd...dddddddddddddddddddddddddddddddd..ddddddddddddddddddd",
"dd..ddddd.ddddd...dddd..d..dd..ddd..d..dddd..dddd...dddd..dd..dd",
"dd..dddddddddd.....ddd..........dd......ddd..ddd.....ddd..dd..dd",
"dd..ddddddddd...d...dd..dd..dd..dd...d...dd..dd..ddd..ddd....ddd",
"dd..ddddddddd..ddd..dd..dd..dd..dd..ddd..dd..dd.......dddd..dddd",
"dd..ddddd.ddd..ddd..dd..dd..dd..dd..ddd..dd..dd.......dddd..dddd",
"ddd..ddd...dd...d...dd..dd..dd..dd...d...dd..dd..dddddddd....ddd",
"ddd.......dddd.....ddd..dd..dd..dd......ddd..ddd......dd..dd..dd",
"ddddd....dddddd...dddd..dd..dd..dd..d..dddd..dddd....ddd..dd..dd",
"dddddddddddddddddddddddddddddddddd..dddddddddddddddddddddddddddd",
"dddddddddddddddddddddddddddddddddd..dddddddddddddddddddddddddddd",
"dddddddddddddddddddddddddddddddddd..dddddddddddddddddddddddddddd"
};
