/* XPM */
static char *clusterconf[] = {
/* width height num_colors chars_per_pixel */
"    64    64        6            1",
/* colors */
". c #000000",
"# c None",
"a c #007f00",
"b c #7f7f00",
"c c None",
"d c #ffff00",
/* pixels */
"################################################################",
"################################################################",
"################################################################",
"#########################.b#####################################",
"#######################b..b#####################################",
"######################...d.#####################################",
"####################..bb#dbb###bbbbbb###########################",
"####################.bdd#db.#........b##########################",
"###################..d#ddbb#..ccccccc...b#######################",
"##################..bddbbbc.cccccccccca..b######################",
"#################b.bd#b.bbccccccccccccab..######################",
"#################..#ddbb.cccccccccccccbbbb..####################",
"################b.bddbba..c..cccccccc.bbbb..####################",
"################..#db.aaa..a.ccccccc.c.bbbb..###################",
"################.dd#.b.aa..a.ccccc.....bbbbb.###################",
"################.ddb...aaa.a.ccccc.bba.bbbbb..##################",
"################.#d.b..aba.aa.ccccc.b.bbbbbbb.##################",
"################.ddbb..abbbba..cccc...abbbbbb.##################",
"###############..ddbbc.abbbba..ccccc.c.bbbbbb.##################",
"###############.bdd..cc.abbb..ccccccccc...b....#################",
"###############.bdd..cc.abbb..ccccccccc........#################",
"###############.##d..ccc.aa...cccccccccccc..c..#################",
"###############.ddd...cc...cc.cccccccccccc.cc..#################",
"###############.bdd...ccc..ccccccccccccccc.cc..#################",
"###############.b#dbb.cc.a...cccccccccccc.aa...#################",
"###############.bddbb...abaa.cccccccccc..abbb.##################",
"###############..d#bb..abbbaa.ccccccccc.abbbb.##################",
"################.dddb...abbba..cccccccc.abbb..##################",
"################.bddb.b..bbba.ccccccccc.abba.###################",
"################..ddbbb..abba.ccccccccc.bbb..###################",
"################b.bdd#b...aba.ccccccccc.bb..####################",
"#################..bddbb....a..ccccccc.bb..#####################",
"##################..dddbb.....c.cccccc.b..######################",
"##################b.b#d#b#.......ccccc...#######################",
"###################..dd#b.bb...........#########################",
"####################..bdd#...b#######..#########################",
"#####################.bdd#dd......bbbbb#########################",
"######################..bdddddddddddd#b.########################",
"#######################...bdddddddddddb.b#######################",
"#########################....bbddbb.....b#######################",
"##########################bb........b##b########################",
"################################.b.#############################",
"###############################..d.#############################",
"#############################..b.b...b##########################",
"############################..bb##bbb..#########################",
"###########################.bbbbbbbbbbb.########################",
"###########################.bbbbbbbbbbb.b#######################",
"###########################.bbbbbbbbbbb.b#######################",
"###########################..bbbbbbbb..b########################",
"###########################bb........bb#########################",
"##########....####..############################################",
"########.......###..####################.#######################",
"########..###...##..###################..#######################",
"#######..#####.###..##..###..###....##.....###...####..#..######",
"#######..#########..##..###..##......#.....##.....###.....######",
"#######..#########..##..###..##..######..###..###..##...########",
"#######..#########..##..###..##.....###..###.......##..#########",
"#######..#####.###..##..###..###.....##..###.......##..#########",
"########..###...##..##..##...######..##..###..#######..#########",
"########.......###..##.......##......##....##......##..#########",
"##########....####..###...#..###....####...###....###..#########",
"################################################################",
"################################################################",
"################################################################"
};
