/* XPM */
static char * xterm_hp_xpm[] = {
"64 38 8 1",
" 	s mask	c None",
".	c gray70",
"X	c gray85",
"o	c gray50",
"O	c darkolivegreen",
"+	s logo	c blue",
"@	c white",
"#	c black",
"                                                                ",
"                                                                ",
"                          ...........................           ",
"                         .XXXXXXXXXXXXXXXXXXXXXXXXXXX.          ",
"                        .XXXXXXXXXXXXXXXXXXXXXXXXXXXXXoo        ",
"                        .XXOOOOOOOOOOOOOOOOOOOOOOOXXXXoo        ",
"                        .XXOOOOOOOOOOOOOOOOOOOOOOOOXXXooo       ",
"            ++++++   ++++++OO@@O@OO@O@@@@OO@OOOOOOOXXXooo       ",
"           ++++++ +   ++++++OOOOOOOOOOOOOOOOOOOOOOOXXXoooo      ",
"          ++++++  +    ++++++@@@@O@@O@@@OOOOOOOOOOOXXXoooo      ",
"          +++++  ++     +++++OOOOOOOOOOOOOOOOOOOOOOXXXooooo     ",
"          ++++   +       ++++@@@@@@@@@@O@@@@@OOOOOOXXXooooo     ",
"          ++++  ++++ +++ ++++OOOOOOOOOOOOOOOOOOOOOOXXXooooo     ",
"          ++++  +  + + + ++++@@@O@@@@O@@OO@@@OOOOOOXXXooooo     ",
"          ++++ ++ ++ + + ++++OOOOOOOOOOOOOOOOOOOOOOXXXooooo     ",
"          ++++ +  + ++++ ++++@OOOOOOOOOOOOOOOOOOOOOXXXooooo     ",
"          ++++      ++  +++++OOOOOOOOOOOOOOOOOOOOOOXXXooooo     ",
"          ++++++   ++  ++++++@@@@O@O@@@O@OOOOOOOOOOXXXooooo     ",
"           ++++++  +  ++++++OOOOOOOOOOOOOOOOOOOOOOOXXXooooo     ",
"            ++++++   ++++++OO@O@@@@OOOOOOOOOOOOOOOOXXXooooo     ",
"                        .XXXOOOOOOOOOOOOOOOOOOOOOOXXXXoooo      ",
"                        .XXXXXXXXXXXXXXXXXXXXXXXXXXXXXooo       ",
"                         .XXXXXXXXXXXXXXXXXXXXXXXXXXXooo        ",
"                            ooooooooooooooooooooooooo...oo      ",
"                             ..........................ooo      ",
"                            oooooooooooooooooooooooooooooo      ",
"                          oXXXXXXXXXXXXXXXXXXXXXXXXXXXoooo.. .. ",
"                          oXXXXXXXXXXXXXXXXXX#######XXoooo  .  .",
"                        oooooooooooooooooooooooooooXXXooo     . ",
"                       oXXXXXXXXXXXXXXXXXXXXXXXXXXooooo      .  ",
"                      oXXXXXXXXXXXXXXXXXXXXXXXXXXoo      oooooo ",
"                      oXX@@@@@@@@@@@@@@@@@@@XXXXXoo   ooooo...o ",
"                     oXXXXXXXXXXXXXXXXXXXXXXXXXXoo   ooXXXoo..o ",
"                    oXX@@@@@@@@@@@@@@@@@@@@XXXXoo    oXXXXX..o  ",
"                   oXXXXXXXXXXXXXXXXXXXXXXXXXXoo     o.....oo   ",
"                   oooooooooooooooooooooooooooo      ooooooo    ",
"                                                                ",
"                                                                "};
