/* XPM */
static char * xterm_linux_xpm[] = {
/*****************************************************************************/
"64 38 8 1",
/**/
" 	s mask	c none",
".	c red",
"X	c gray70",
"o	c gray85",
"O	c gray50",
"+	c darkolivegreen",
"@	c white",
"#	c black",
/* Þ
°*/
"                                                                ",
"......                                                          ",
" ....                 ..  XXX..XXXXXXXXXXXXXXXXXXXXXX           ",
"  ..  ..              ...Xoo...ooooooooooooooooooooooX          ",
"  ..  ..       ..  ..  ..ooo..ooooooooooooooooooooooooOO        ",
"  ..           ..  ..   ..o..+++++++++++++++++++++ooooOO        ",
"  ..  .. ..  . ..  ..   ..o..++++++++++++++++++++++oooOOO       ",
"  ..  .. . . . ..  ..   X..++@@+@++@+@@@@++@+++++++oooOOO       ",
"  ..  .. .  ..  ....    X..++++++++++++++++++++++++oooOOOO      ",
"  ..  .. .   .  ....   ..o..+@@@@++@+@@@+++++++++++oooOOOO      ",
"  ..                   ..o..+++++++++++++++++++++++oooOOOOO     ",
"  ......................Xoo..++@@++@@@@+@@@@@++++++oooOOOOO     ",
"  ......................Xoo...+++++++++++++++++++++oooOOOOO     ",
"                     .. Xoo+..+@+@@@@+@@++@@@++++++oooOOOOO     ",
"                    ..  Xoo++..++++++++++++++++++++oooOOOOO     ",
"                        Xoo++@+++++++++++++++++++++oooOOOOO     ",
"                        Xoo++++++++++++++++++++++++oooOOOOO     ",
"                        Xoo++@@@@+@+@@@+@++++++++++oooOOOOO     ",
"                        Xoo++++++++++++++++++++++++oooOOOOO     ",
"                         oo++@+@@@@++++++++++++++++oooOOOOO     ",
"                          oo++++++++++++++++++++++ooooOOOO      ",
"                           oooooooooooooooooooooooooooOOO       ",
"                            oooooooooooooooooooooooooOOO        ",
"                             OOOOOOOOOOOOOOOOOOOOOOOOXXXOO      ",
"                              XXXXXXXXXXXXXXXXXXXXXXXXXOOO      ",
"                               OOOOOOOOOOOOOOOOOOOOOOOOOOO      ",
"                                ooooooooooooooooooooooOOOOXX XX ",
"                          Ooooooooooooooooooo#######ooOOOO  X  X",
"                        OOOOOOOOOOOOOOOOOOOOOOOOOOOoooOOO     X ",
"                       OooooooooooooooooooooooooooOOOOO      X  ",
"                      OooooooooooooooooooooooooooOO      OOOOOO ",
"                      Ooo@@@@@@@@@@@@@@@@@@@oooooOO   OOOOOXXXO ",
"                     OooooooooooooooooooooooooooOO   OOoooOOXXO ",
"                    Ooo@@@@@@@@@@@@@@@@@@@@ooooOO    OoooooXXO  ",
"                   OooooooooooooooooooooooooooOO     OXXXXXOO   ",
"                   OOOOOOOOOOOOOOOOOOOOOOOOOOOO      OOOOOOO    ",
"                                                                ",
"                                                                "};
