/* XPM */
static char * xterm_erik_xpm_5[] = {
"64 38 8 1",
" 	s mask	c None",
".	c #71717171C6C6",
"X	c gray70",
"o	c gray85",
"O	c gray50",
"+	c darkolivegreen",
"@	c white",
"#	c black",
"                                                                ",
"                                                                ",
"              ... ...     XXXXXXXXXXXXXXXXXXXXXXXXXXX           ",
"            ..... .....  XoooooooooooooooooooooooooooX          ",
"           ... .. .. ... XooooooooooooooooooooooooooooOO        ",
"          ...  .. ..  ...Xoo++++++++++++++++++++++ooooOO        ",
"         ...   .. ..   ...oo+++++++++++++++++++++++oooOOO       ",
"        ...    .. ..    ...o+@@+@++@+@@@@++@+++++++oooOOO       ",
"         ...   .. ..   ...oo+++++++++++++++++++++++oooOOOO      ",
"       .. ...  .. ..  ...X..+@@@@+@@+@@@+++++++++++oooOOOO      ",
"      .... ... .. .. ... ....++++++++++++++++++++++oooOOOOO     ",
"      ..... ..... ..... .....@@@@@@@@@@+@@@@@++++++oooOOOOO     ",
"      .. ... .... .... ...o..++++++++++++++++++++++oooOOOOO     ",
"      ..  ... ....... ...Xo..@@@+@@@@+@@++@@@++++++oooOOOOO     ",
"      ..   ............. Xo..++++++++++++++++++++++oooOOOOO     ",
"      ..    ... ... ...  Xo..@+++++++++++++++++++++oooOOOOO     ",
"      ..   ..... . ..... Xo..++++++++++++++++++++++oooOOOOO     ",
"      ..  ... ....... ...Xo..@@@@+@+@@@+@++++++++++oooOOOOO     ",
"      .. ... .... .... ...o..++++++++++++++++++++++oooOOOOO     ",
"      ..... ..... ..... .....@+@@@@++++++++++++++++oooOOOOO     ",
"      .... ... .. .. ... ....+++++++++++++++++++++ooooOOOO      ",
"       .. ...  .. ..  ...X..ooooooooooooooooooooooooooOOO       ",
"         ...   .. ..   ...XooooooooooooooooooooooooooOOO        ",
"        ...    .. ..    ...OOOOOOOOOOOOOOOOOOOOOOOOOOXXXOO      ",
"         ...   .. ..   ...   XXXXXXXXXXXXXXXXXXXXXXXXXXOOO      ",
"          ...  .. ..  ... OOOOOOOOOOOOOOOOOOOOOOOOOOOOOOOO      ",
"           ... .. .. ...  OoooooooooooooooooooooooooooOOOOXX XX ",
"            ..... .....   Ooooooooooooooooooo#######ooOOOO  X  X",
"              ... ...   OOOOOOOOOOOOOOOOOOOOOOOOOOOoooOOO     X ",
"                       OooooooooooooooooooooooooooOOOOO      X  ",
"                      OooooooooooooooooooooooooooOO      OOOOOO ",
"                      Ooo@@@@@@@@@@@@@@@@@@@oooooOO   OOOOOXXXO ",
"                     OooooooooooooooooooooooooooOO   OOoooOOXXO ",
"                    Ooo@@@@@@@@@@@@@@@@@@@@ooooOO    OoooooXXO  ",
"                   OooooooooooooooooooooooooooOO     OXXXXXOO   ",
"                   OOOOOOOOOOOOOOOOOOOOOOOOOOOO      OOOOOOO    ",
"                                                                ",
"                                                                "};
