/* XPM */
static char * xterm_dec_xpm[] = {
"64 38 8 1",
" 	s mask	c None",
".	c gray70",
"X	c gray85",
"o	c gray50",
"O	c darkolivegreen",
"+	c white",
"@	c red3",
"#	c black",
"                                                                ",
"                                                                ",
"                          ...........................           ",
"                         .XXXXXXXXXXXXXXXXXXXXXXXXXXX.          ",
"                        .XXXXXXXXXXXXXXXXXXXXXXXXXXXXXoo        ",
"                        .XXOOOOOOOOOOOOOOOOOOOOOOOXXXXoo        ",
"                        .XXOOOOOOOOOOOOOOOOOOOOOOOOXXXooo       ",
"                        .XXOO++O+OO+O++++OO+OOOOOOOXXXooo       ",
"                        .XXOOOOOOOOOOOOOOOOOOOOOOOOXXXoooo      ",
"                        .XXOO++++O++O+++OOOOOOOOOOOXXXoooo      ",
"    @@@@@   @@@  @@@   @@ X@@@@@OOOOOO@@OOOOO@@@OOOXXXooooo     ",
"   @@@@@  @@@@@@ @@@  @@@ X@@@@@@++++@@@+++@@@@@@OOXXXooooo     ",
"  @@@     @@  @@ @@@@@@@@ X@@OO@@OOO@@@@OO@@OOO@@OOXXXooooo     ",
"  @@     @@   @@ @@@@@@@@XX@@++@@++@@O@@OO@@+OO@@OOXXXooooo     ",
"  @@     @@   @@ @@ @@ @@XX@@@@@OOO@@@@@OO@@OOO@@OOXXXooooo     ",
"  @@     @@  @@  @  @  @@X@@@@@OOO@@OO@@OO@@OOO@@OOXXXooooo     ",
"  @@@@@@ @@@@@@ @@  @  @@X@@OOOOOO@@OO@@OO@@@@@@@@@XXXooooo     ",
"   @@@@   @@@   @@    @@@X@@O++++O@@++@@OOO@@@OO@@OXXXooooo     ",
"                        .XXOOOOOOOOOOOOOOOOOOOO@OOOXXXooooo     ",
"                        .XXOO+O++++OOOOOOOOOOO@OOOOXXXooooo     ",
"                        .XXXOOOOOOOOOOOOOOOOOOOOOOXXXXoooo      ",
"                        .XXXXXXXXXXXXXXXXXXXXXXXXXXXXXooo       ",
"                         .XXXXXXXXXXXXXXXXXXXXXXXXXXXooo        ",
"                            ooooooooooooooooooooooooo...oo      ",
"                             ..........................ooo      ",
"                            oooooooooooooooooooooooooooooo      ",
"                          oXXXXXXXXXXXXXXXXXXXXXXXXXXXoooo.. .. ",
"                          oXXXXXXXXXXXXXXXXXX#######XXoooo  .  .",
"                        oooooooooooooooooooooooooooXXXooo     . ",
"                       oXXXXXXXXXXXXXXXXXXXXXXXXXXooooo      .  ",
"                      oXXXXXXXXXXXXXXXXXXXXXXXXXXoo      oooooo ",
"                      oXX+++++++++++++++++++XXXXXoo   ooooo...o ",
"                     oXXXXXXXXXXXXXXXXXXXXXXXXXXoo   ooXXXoo..o ",
"                    oXX++++++++++++++++++++XXXXoo    oXXXXX..o  ",
"                   oXXXXXXXXXXXXXXXXXXXXXXXXXXoo     o.....oo   ",
"                   oooooooooooooooooooooooooooo      ooooooo    ",
"                                                                ",
"                                                                "};
