/* XPM */
static char * xterm_cray_xpm[] = {
"64 38 8 1",
" 	s background	c None",
".	c gray70",
"X	c gray85",
"o	c navy",
"O	c darkolivegreen",
"+	c white",
"@	c gray50",
"#	c black",
"                                                                ",
"                                                                ",
"                          ...........................           ",
"                         .XXXXXXXXXXXXXXXXXXXXXXXXXXX.          ",
"     oooooooo  oooooooo .XXXOOOO+o+OOOO+oo+OOOOOOOO+oo@@        ",
"    ooooooooo  ooooooooo.XOOOO++ooo+OOOO+oo+OO+O+O+ooX@@        ",
"   ooo         oo     oo.XOOXXXooXoo+OOOO+oo++OOO+ooXX@@@       ",
"   oo          oo     oo.XOOO+oo+XXoo++++O+oo+OO+oo++X@@@       ",
"   oo          oooooooo .XOO+ooXXXXXoo++OOO+oo++oo++OX@@@@      ",
"   oo          oooooooo .XO+ooooooooooo+OOOO+oooo++OOX@@@@      ",
"   ooo         oo    oo .X+ooooooooooooo+OOOO+oo++OOOX@@@@@     ",
"    ooooooooo  oo     oo.Xoo+++++++++++oo+++++oo+++OOX@@@@@     ",
"     oooooooo  oo      ooXoo+OOOOOOOOO+oo+OOO+oo+OOOOX@@@@@     ",
"                        .X++O+++O++++O+++++++++++OOOOX@@@@@     ",
"                        .XOOOOOOOOOOOOOOOOOOOOOOOOOOOX@@@@@     ",
"                        .XOOO+OOOOOOOOOOOOOOOOOOOOOOOX@@@@@     ",
"                        .XOOOOOOOOOOOOOOOOOOOOOOOOOOOX@@@@@     ",
"                        .XOOO++++O+O+++O+OOOOOOOOOOOOX@@@@@     ",
"                        .XOOOOOOOOOOOOOOOOOOOOOOOOOOOX@@@@@     ",
"                        .XOOO+O++++OOOOOOOOOOOOOOOOOOX@@@@@     ",
"                        .XOOOOOOOOOOOOOOOOOOOOOOOOOOOX@@@@      ",
"                        .XXOOOOOOOOOOOOOOOOOOOOOOOOOXX@@@       ",
"                         .XXXXXXXXXXXXXXXXXXXXXXXXXXX@@@        ",
"                            @@@@@@@@@@@@@@@@@@@@@@@@@...@@      ",
"                             ..........................@@@      ",
"                            @@@@@@@@@@@@@@@@@@@@@@@@@@@@@@      ",
"                          @XXXXXXXXXXXXXXXXXXXXXXXXXXX@@@@.. .. ",
"                          @XXXXXXXXXXXXXXXXXX#######XX@@@@  .  .",
"                        @@@@@@@@@@@@@@@@@@@@@@@@@@@XXX@@@     . ",
"                       @XXXXXXXXXXXXXXXXXXXXXXXXXX@@@@@      .  ",
"                      @XXXXXXXXXXXXXXXXXXXXXXXXXX@@      @@@@@@ ",
"                      @XX+++++++++++++++++++XXXXX@@   @@@@@...@ ",
"                     @XXXXXXXXXXXXXXXXXXXXXXXXXX@@   @@XXX@@..@ ",
"                    @XX++++++++++++++++++++XXXX@@    @XXXXX..@  ",
"                   @XXXXXXXXXXXXXXXXXXXXXXXXXX@@     @.....@@   ",
"                   @@@@@@@@@@@@@@@@@@@@@@@@@@@@      @@@@@@@    ",
"                                                                ",
"                                                                "};
