/* XPM */
static char * binary_off_xpm[] = {
"50 16 4 1",
" 	c None",
".	c #0000FE",
"+	c #FFFFFF",
"@	c #000000",
" ...............                                  ",
" +++++++++++++++                                  ",
" +++++++++++++++                                  ",
" +++++++++++++++                                  ",
" +++++++++++++++                                  ",
" +++++++++++++++                                  ",
" +++++++++++++++     @               @       @    ",
" +++++++++++++@+     @                       @    ",
" +++++++++++++@+ @@  @@@   @@  @@ @ @@ @@@  @@@   ",
" +++++++++++++@+@  @ @  @ @   @   @@ @ @  @  @    ",
" +++++++++++++@+@  @ @  @  @@ @   @  @ @  @  @    ",
" +++++++++++@+@+@  @ @  @   @ @   @  @ @  @  @    ",
" ++++++++++++@++ @@  @@@  @@   @@ @  @ @@@   @    ",
" +++++++++++++++                       @          ",
"                                                  ",
"                                                  "};
