/* XPM */
static char * bool2_xpm[] = {
"16 16 3 1",
" 	c gray",
".	c blue",
"X	c red",
"            .   ",
"           ..   ",
"            .   ",
"            .   ",
"            .   ",
"        ........",
"        .       ",
"   X    .       ",
"  X X   .       ",
"  X X   X       ",
"  X X   X       ",
"   X    X       ",
"XXXXXXXXX       ",
"                ",
"                ",
"                "};
