/* XPM */
static char * branch[] = {
"16 16 3 1",
" 	c white",
".	c black",
"X	c yellow",
"                ",
"                ",
"................",
"................",
".XXXXXXXXXXXXXX.",
".XXXXXXXXXXXXXX.",
".XXXXXXXXXXXXXX.",
".XXXXXXXXXXXXXX.",
".XXXXXXXXXXXXXX.",
".XXXXXXXXXXXXXX.",
".XXXXXXXXXXXXXX.",
"...XXXXXXXXXX...",
"  ............  ",
"   ..........   ",
"                ",
"                "};
