/* XPM */
static char *mini-ckpt[] = {
/* width height num_colors chars_per_pixel */
"    16    16       23            1",
/* colors */
". c #cbffff",
"# c #ab0000",
"a c #220000",
"b c #326565",
"c c #440000",
"d c #ef0000",
"e c #550000",
"f c #00ef00",
"g c #770000",
"h c #b2c0dc",
"i c #00ab00",
"j c #008900",
"k c #007700",
"l c #005500",
"m c #ba0000",
"n c #00dc00",
"o c #00ba00",
"p c #dc0000",
"q c #33fe00",
"r c #fe0000",
"s c #004400",
"t c #890000",
"u c #002200",
/* pixels */
"................",
".hhhhhhhhhhhhhhh",
".hhhhhhhhhkhhhhh",
".hhhhhhhhhklhhhh",
".huuuuuuuuulshhh",
".hhuuunoijklsuhh",
".hhhuuuuuuulshhh",
".hhhhhhhhhklhhhh",
".hhhhpmhhhkhhhhh",
".hhhdphhhhhhhhhh",
".hhrdpm#tgeecahh",
".hhrdpm#tgeechhh",
".hhhdphhhhhhhhhh",
".hhhhpmhhhhhhhhh",
".hhhhhhhhhhhhhhh",
".hhhhhhhhhhhhhhh"
};
