/* XPM */
static char * cstr2_xpm[] = {
"16 16 3 1",
" 	c gray",
".	c blue",
"X	c red",
"                ",
"   .            ",
"  . .           ",
" .   .          ",
" .   .   XXXX   ",
" .   .    X  X  ",
" .....    X  X  ",
" .   .    X  X  ",
" .   .    XXX   ",
" .   .    X  X  ",
"          X  X  ",
"          X  X  ",
"         XXXX   ",
"                ",
"                ",
"                "};
