/* XPM */
static char *mini-ctx[] = {
/* width height num_colors chars_per_pixel */
"    16    16        6            1",
/* colors */
". c #bfbfbf",
"# c #000000",
"a c #000000",
"b c #bebebe",
"c c #d3d3d3",
"d c #ffffff",
/* pixels */
"................",
".......#a.......",
"....#########...",
"...bcccbcbcab#..",
"...bbbcddddbc#..",
"...bbcddddddb#..",
"...bcdddddddb#..",
"...bdddddddbc#..",
"...bbdddddbcb#..",
"...bbbdddbcbb#..",
"...bcbbdbcbbb#..",
"...bcbbcbbbbb#..",
"...bcbbcbcbbc#..",
"...bcbbcbbbbc#..",
"...bcbbcbbcbb#..",
"...#cbbcbbcbb..."
};
