/* XPM */
static char *mini-days[] = {
/* width height num_colors chars_per_pixel */
"    16    16       16            1",
/* colors */
". c #b2c0dc",
"# c #000000",
"a c #ffcc9a",
"b c #ff9966",
"c c #cc9966",
"d c #cb6532",
"e c #983200",
"f c #222222",
"g c #330000",
"h c #bbbbbb",
"i c #fecb00",
"j c #555555",
"k c #888888",
"l c #eeeeee",
"m c #aaaaaa",
"n c #0000fe",
/* pixels */
"..#########.....",
"..a#aaaaaaab....",
"..a#aaaaaaabb...",
"..a#aaaaaaa###..",
"..aaaeeeeeeeec..",
"..aaeeeeeeegfa..",
"..aaeieejkegfc..",
"..aagggjlkggfc..",
"..aalljllnkjfc..",
"..aaljllnnlkfc..",
"..aajllnllnlmk..",
"..aalflllllnllmk",
"..aal#fllllllnll",
"..aalllfllllnllm",
"..aajjjjflllllmm",
"..#######flllmm."
};
