/* XPM */
static char *mini-deadline_ins[] = {
/* width height num_colors chars_per_pixel */
"    16    16        6            1",
/* colors */
". c #b2c0dc",
"# c #0000ab",
"a c #444444",
"b c #989865",
"c c #777777",
"d c #222222",
/* pixels */
"..######aaaaab..",
"..######accccad.",
"..######accccad.",
"..caaaaaaccccad.",
"..cccccccccccad.",
"..ccaccccacccad.",
"..ccaccccaaccad.",
"..ccaccccccccad.",
"..ccaccccccccad.",
"..ccaccccccccad.",
"..ccaccccaaccad.",
"..ccaccccacccad.",
"..ccccccccaaabd.",
"..cccccccbaabbd.",
"..cccccccbabbad.",
"...bbbbbbbbbaad."
};
