/* XPM */
static char *mini-deadline[] = {
/* width height num_colors chars_per_pixel */
"    16    16        8            1",
/* colors */
". c #fffecb",
"# c #777777",
"a c #cccc99",
"b c #0000ab",
"c c #989865",
"d c #b2c0dc",
"e c #444444",
"f c #222222",
/* pixels */
"ddbbbbbbaaaaacdd",
"ddbbbbbba....efd",
"ddbbbbbba....efd",
"dd.aaaaaa....efd",
"dd.....#.....efd",
"dd..e..#.e...efd",
"dd..e..#.ee..efd",
"dd..e..#.....efd",
"dd.#e#######.efd",
"dd..e..#.....efd",
"dd..e..#.ee..efd",
"dd..e..#.e...efd",
"dd.....#..eaacfd",
"dd.......ceaccfd",
"dd.......ceccafd",
"dddcccccccccaafd"
};
