/* XPM */
static char * dynamite_xpm[] = {
/* width height ncolors chars_per_pixel */
"450 12 5 1",
/* colors */
" 	s background	c None",
".	c tomato",
"X	c black",
"o	c yellow",
"O	c gainsboro",
/* pixels */
"  .   .                                                                                                                                                                                                                                                                                                                                                                                                                                                           ",
"   .                                                                                                                                                                                                                                                                                                                                                                                                                     XXXXXXXXXXXXXXXXXXXXXXXXXX               ",
"      o     .                                                                                                                                                                                                                                                                                                                                                                                                            XOX....XooX.......XooX....X              ",
".  o . .                                                                                                                                                                                                                                                                                                                                                                                                                 XOX....XooX.......XooX....X              ",
"    o   o.                                                                                                                                                                                                                                                                                                                                                                                                              XXXXXXXXXXooXXXXXXXXXooXXXXX              ",
"  o . o .                                                                                                                                                                                                                                                                                                                                                                                                              XXXXOX....XooX.......XooX....X             ",
"   .o X .                                                                                                                                                                                                                                                                                                                                                                                                            XXOXOXOX....XooX.......XooX....X             ",
"    .ooX o .                                                                                                                                                                                                                                                                                                                                                                                                        XOO XXXXXXXXXooXXXXXXXXXooXXXXXX              ",
"   o. .OX                                                                                                                                                                                                                                                                                                                                                                                                          XO    XOX....XooX.......XooX....X              ",
"  .     OXX                                                                                                                                                                                                                                                                                                                                                                                                      XXO     XOX....XooX.......XooX....X              ",
"  .   .  OOXXXXXXXXXXXXXXXXXXXXXXXXXXXXXXXXXXXXXXXXXXXXXXXXXXXXXXXXXXXXXXXXXXXXXXXXXXXXXXXXXXXXXXXXXXXXXXXXXXXXXXXXXXXXXXXXXXXXXXXXXXXXXXXXXXXXXXXXXXXXXXXXXXXXXXXXXXXXXXXXXXXXXXXXXXXXXXXXXXXXXXXXXXXXXXXXXXXXXXXXXXXXXXXXXXXXXXXXXXXXXXXXXXXXXXXXXXXXXXXXXXXXXXXXXXXXXXXXXXXXXXXXXXXXXXXXXXXXXXXXXXXXXXXXXXXXXXXXXXXXXXXXXXXXXXXXXXXXXXXXXXXXXXXXXXXXXXXXXXXXXXXXXXXXXXXXXXXXXXXXXXXXXXXXXXXXXXXXXXXXXXXXXXXXXXOO       XXXXXXXXXXXXXXXXXXXXXXXXX               ",
"           OOOOOOOOOOOOOOOOOOOOOOOOOOOOOOOOOOOOOOOOOOOOOOOOOOOOOOOOOOOOOOOOOOOOOOOOOOOOOOOOOOOOOOOOOOOOOOOOOOOOOOOOOOOOOOOOOOOOOOOOOOOOOOOOOOOOOOOOOOOOOOOOOOOOOOOOOOOOOOOOOOOOOOOOOOOOOOOOOOOOOOOOOOOOOOOOOOOOOOOOOOOOOOOOOOOOOOOOOOOOOOOOOOOOOOOOOOOOOOOOOOOOOOOOOOOOOOOOOOOOOOOOOOOOOOOOOOOOOOOOOOOOOOOOOOOOOOOOOOOOOOOOOOOOOOOOOOOOOOOOOOOOOOOOOOOOOOOOOOOOOOOOOOOOOOOOOOOOOOOOOOOOOOOOOOOOOOOOOOOOOOOOOOOOOO                                                 "};
