/* XPM */
static char *mini-env[] = {
/* width height num_colors chars_per_pixel */
"    16    16        6            1",
/* colors */
". c #000000",
"# c #00ff00",
"a c #bebebe",
"b c #a0522d",
"c c #2e8b57",
"d c #b2c0dc",
/* pixels */
"dddddddddddddddd",
"dddddcc##ddddddd",
"dddc.##ccccddddd",
"ddcdccccbccdcddd",
"ddccccccccdcccdd",
"dd#c.acc#ccc#cdd",
"dd#bccacca..cddd",
"ddc#bccacccccddd",
"dddccc#cc#c#dddd",
"dddd#cccc##ddddd",
"dddddddccddddddd",
"dddddddccddddddd",
"dddddddacddddddd",
"dddddddaccdddddd",
"dc..ccacccccc..d",
"dddddddddddddddd"
};
