/* XPM */
static char *mini-infinity[] = {
/* width height num_colors chars_per_pixel */
"    16    16        2            1",
/* colors */
". c #b2c0dc",
"# c #ff0000",
/* pixels */
"................",
"................",
"................",
"................",
"................",
"....##....##....",
"...#..#..#..#...",
"..#....##....#..",
"..#....#.....#..",
"..#...#.#...#...",
"...###...###....",
"................",
"................",
"................",
"................",
"................"
};
