/* XPM */
static char * leaf_plus[] = {
"16 16 2 1",
" 	c white",
".	c blue",
"                ",
"                ",
"                ",
"  ..........    ",
"  .   ..   .    ",
"  .   ..   .    ",
"  .   ..   .    ",
"  ..........    ",
"  ..........    ",
"  .   ..   .    ",
"  .   ..   .    ",
"  .   ..   .    ",
"  ..........    ",
"                ",
"                ",
"                "};
