/* XPM */
static char *mini-mailbox[] = {
/* width height num_colors chars_per_pixel */
"    16    16        8            1",
/* colors */
". s mask c None",
"# c #000000",
"a c #ffa500",
"b c #ffd700",
"c c #ff0000",
"d c #0000ff",
"e c #708090",
"f c #2f4f4f",
/* pixels */
"........##......",
".......aaab.....",
"......aaabbb....",
".....aaabbbb#...",
"....a#bbbbb#b...",
"...abbbbbb#bb.c.",
"...bbbbbb#bbbcc.",
"...bdbdbbbbbcac.",
"...bbbdddbbce.c.",
"...bbbbbdbccb...",
"...bbbbbbceb#...",
"...bbbbbbeb#....",
"...bbbbbbbb.....",
"...##bbbbb#.....",
"......####f.....",
".......fffe....."
};
