/* XPM */
static char *mini-mcicon[] = {
/* width height num_colors chars_per_pixel */
"    32    32        6            1",
/* colors */
". c #000000",
"# c #000080",
"a c #808080",
"b c #c0c0c0",
"c c #0000ff",
"d c #b2c0dc",
/* pixels */
"dddddddddddddddddddddddddddddddd",
"dddddddddcdddddddddddddddddddddd",
"dddddddb.cdddddddddddddddddddddd",
"ddddddd.cccddddddddddddddddddddd",
"ddddddb.cccd..dd..dddddd..dddddd",
"ddddddaccccd......dd...d..d.d.dd",
"dddddb.ccccd......d..d.d..d.d..d",
"dddddb.ccccd......dd...d..d.d..d",
"ddddda.ccccd......d....d..d.d..d",
"ddddd.cccccddddddddddddddddddddd",
"ddddb.cccccddddddddddddddddddddd",
"dddda.cccccccddddddddddddddddddd",
"dddba.ccccccccccdddddddddddddddd",
"ddccccccccccccaadddddddddddddddd",
"d.ccccccccccc.addddddddddddddddd",
"d.cccccccccccddddddddddddddddddd",
"d..cccccccccccdddddddddddddddddd",
"d...ccc.#ccccccddddddddddddddddd",
"da..cc#..cccccccdddddddddddddddd",
"dd...ad...cccccccddddddddddddddd",
"ddb.addb...ccccccddddddddddddddd",
"ddddddddb...#cccccdddddddddddddd",
"dddddddddba..cccccdddddddddddddd",
"ddddddddddba..cccccddddddddddddd",
"dddddddddddb...ccccddddddddddddd",
"dddddddddddda..#cccddddddddddddd",
"ddddddddddddda...cccdddddddddddd",
"dddddddddddddba..#ccdddddddddddd",
"ddddddddddddddda..ccdddddddddddd",
"dddddddddddddddba..cdddddddddddd",
"ddddddddddddddddb..ddddddddddddd",
"ddddddddddddddddddbddddddddddddd"
};
