/* XPM */
static char *mini-memorybig[] = {
/* width height num_colors chars_per_pixel */
"    16    16        4            1",
/* colors */
". c #b2c0dc",
"# c #000000",
"a c #ff0000",
"b c #ffd700",
/* pixels */
"................",
"................",
".........#######",
"........########",
"......##########",
".....#aa###a####",
"....###########.",
"..##aaaaaaaa##.b",
".############.bb",
".............bb.",
"b............b..",
"b...............",
"................",
"................",
"................",
"................"
};
