/* XPM */
static char * open_lock_insensitive_xpm[] = {
"42 17 4 1",
" 	c None",
".	c #FFFFFF",
"+	c #BEBEBE",
"@	c #000000",
"                   .....+++               ",
"                  .. @ @@@++              ",
"                    @++++@@+              ",
"                         +@@+             ",
"                         .@@+             ",
"                        .@@+              ",
"                        @@+               ",
"                           @              ",
"              .+++++++++++@@              ",
"              . @@@ @@@@@@@@              ",
"              .+++++++++++@@              ",
"              .+@@@@@@@@@@@@              ",
"              .+++ ++++++ @@              ",
"              .+@@@@@ @@@@@@              ",
"              .+++ +++++++@@              ",
"              .@@@@@@@@@@@@@              ",
"                                          "};
