/* XPM */
static char *mini-project_ins[] = {
/* width height num_colors chars_per_pixel */
"    16    16        3            1",
/* colors */
". c #b2c0dc",
"# c #d3d3d3",
"a c #708090",
/* pixels */
"................",
"................",
"................",
"....####........",
"....#..#........",
"....#.a#aa......",
"....#.a####.....",
"....#.a#a.#.....",
"....#.a#.a#aa...",
"......a#.a..a...",
".......#.aaa....",
".......#.a......",
".........a......",
"................",
"................",
"................"
};
