/* XPM */
static char *mini-project[] = {
/* width height num_colors chars_per_pixel */
"    16    16        5            1",
/* colors */
". c #b2c0dc",
"# c #ff0000",
"a c #708090",
"b c #000000",
"c c #0000ff",
/* pixels */
"................",
"................",
"................",
"....####........",
"....#..#........",
"....#.a#aa......",
"....#.abbbb.....",
"....#.aba.b.....",
"....#.ab.cbcc...",
"......ab.c..c...",
".......b.ccc....",
".......b.c......",
".........c......",
"................",
"................",
"................"
};
