/* XPM */
static char * qask_xpm[] = {
"16 16 3 1",
" 	c white",
".	c black",
"X	c grey",
"                ",
"                ",
" ......  ...... ",
" .    .  .    . ",
" .XXXX.  .XXXX. ",
" .    .  .    . ",
" .XXXX.  .XXXX. ",
" .    .  .    . ",
" .XXXX.  .    . ",
" .    .  .    . ",
" .XXXX.  .    . ",
" .    .  .    . ",
" ......  ...... ",
"                ",
" ...   ...  ... ",
"                "};
