/* XPM */
static char * qsh_on_ins_xpm[] = {
"50 16 5 1",
" 	c None",
".	c #000000",
"+	c #FFFFFF",
"@	c #D3D3D3",
"#	c #555555",
"                                                  ",
" ...............                                  ",
" .+.+...........                                  ",
" ...............                                  ",
" @@@@@@@@@@@@@@@                                  ",
" @@@@@@@@@@@@@@@                                  ",
" @@@@@@@@@@@@@@@                                  ",
" @@@@@@@@@@@@@@@     #                 # #        ",
" @@@@@@@@@@@@#@@     #                 #          ",
" @@@@@@@@@@@@#@###  ### #  # ###   ## #### #  #   ",
" @@@@@@@@@@@@#@#  #  # # # ##   # #    # # #  #   ",
" @@@@@@@@@@@@#@#  #  # ### #  ### #    # # #  #   ",
" @@@@@@@@@@@@#@#  #  # #   #  # # #    # # # #    ",
" @@@@@@@@@@@@#@#  #  #  ## #  ## # ##  # #  #     ",
" @@@@@@@@@@@@@@@                                  ",
"                                                  "};
