/* XPM */
static char *mini-qsh_off[] = {
/* width height num_colors chars_per_pixel */
"    50    16        6            1",
/* colors */
". c #000000",
"# c #000080",
"a c #808080",
"b c #c0c0c0",
"c c #0000ff",
"d c None",
/* pixels */
"dddddddddddddddddddddddddddddddddddddddddddddddddd",
"dddddddddddddddddddddddddddddddddddddddddddddddddd",
"dddddddd....dddddddddddddddddddddddddddddddddddddd",
"dd....d.ddddba..dddddddddddddddddddddddddddddddddd",
"ddccc.dddd.dbbabd.dddddddddddddddddddddddddddddddd",
"ddccc.bdd.d.b.dd.ddddddddddddddddddddddddddddddddd",
"ddccc.abbd.baddddddddddddddddddddddddddddddddddddd",
"dd###.d.aa.bdddddd....dddddddddddddddddd..dddddddd",
"dddddddddddddddddd.....dddddddd.dddddddd..dddddddd",
"dddddddddddddddddd.ddd.ddd...d...ddd..dd..d..ddddd",
"dddddddddddddddddd.....dd.dd..d.ddd.d..d..dd..dddd",
"dddddddddddddddddd.....ddd....d.dd..dddd..dd..dddd",
"dddddddddddddddddd.ddd..d.dd..d.dd..dddd..dd..dddd",
"dddddddddddddddddd......d.dd..d.ddd.d..d..dd..dddd",
"dddddddddddddddddd.....ddd..d.d..ddd..dd..dd..dddd",
"dddddddddddddddddddddddddddddddddddddddddddddddddd"
};
