/* XPM */
static char * qsh_off_ins_xpm[] = {
"50 16 5 1",
" 	c None",
".	c #555555",
"+	c #C0C0C0",
"@	c #000000",
"#	c #808080",
"                                                  ",
"                                                  ",
"        ....                                      ",
"  .... .   ++...                                  ",
"  @...    . ++#+ .                                ",
"  @...+  . .+.  .                                 ",
"  @...#++ .+#              .     .                ",
"  @@@. .##.+     ...       .     .                ",
"                 .  . ..  ... .. ...              ",
"                 ...    .  . .   .  .             ",
"                 .  . ...  . .   .  .             ",
"                 .  . . .  . .   .  .             ",
"                 ...  .. . .  .. .  .             ",
"                                                  ",
"                                                  ",
"                                                  "};
