/* XPM */
static char *mini-qsh_on_ins[] = {
/* width height num_colors chars_per_pixel */
"    50    16        4            1",
/* colors */
". c None",
"# c #555555",
"a c #ffffff",
"b c #d3d3d3",
/* pixels */
"..................................................",
".###############..................................",
".#a#a###########..................................",
".###############..................................",
".bbbbbbbbbbbbbb#..................................",
".bbbbbbbbbbbbbb#..................................",
".bbbbbbbbb#bbbb#.#................#...#...........",
".bbbbbbbbb#bb######.##.###.##..##.##..#..#.#.##...",
".bbbbbbbbb#bb#b#.#..####...####...#...#..#.####...",
".bbbbbbbbb#bb#b#.##.#.##...#.##.#.#.#.#..##.#.#...",
".bbbbbbbbbbbbbb#..................................",
".bbbbbbbbbbbbbb#..................................",
".###############..................................",
"..................................................",
"..................................................",
".................................................."
};
