/* XPM */
static char *resources2[] = {
/* width height num_colors chars_per_pixel */
"    64    64       11            1",
/* colors */
". c #000000",
"# c #800000",
"a c #808000",
"b c #000080",
"c c #008080",
"d c #808080",
"e c #c0c0c0",
"f c #ff0000",
"g c #ffff00",
"h c #0000ff",
"i s mask c None",
/* pixels */
"iiiiiiiiiiiiiiiiiiiiiiiiiiiiiiiiiiiiiiiiiiiiiiiiiiiiiiiiiiiiiiii",
"iiiiiiiiiiiiiiiiiiiiiiiiiiiiiiiiiiiiiiiiiiiiiiiiiiiiiiiiiiiiiiii",
"iiiiiiiiiiiiiiiiiiiiiiiiiiiiiiiiiiiiiiiiiiiiiiiiiiiiiiiiiiiiiiii",
"iiiiiiiiiiiiiiiiiiiiiiiiiiiiiiiiiiiiiiiiiiiiiiiiiiiiiiiiiiiiiiii",
"iiiiiiiiiiiiiiiiiiiiiiiiiiiiiiiiiiiiiiiiiiiiiiiiiiiiiiiiiiiiiiii",
"iiiiiiiiiiiiiiiiiiiiiiiiiiiiiiiiiiiiiiiiiiiiiiiiiiiiiiiiiiiiiiii",
"iiiiiiiiiiiiiiiiiiiiiiiiiiiiiiiiiiiiiiiiiiiiiiiiiiiiiiiiiiiiiiii",
"iiiiiiiiiiiiiiiiiiiiiiiiiiiiiiiiiiiiiiiiiiiiiiiiiiiiiiiiiiiiiiii",
"iiiiiiiiiiiiiiiiiiiiiiiiiiiiiiiiiiiiiiiiiiiiiiiiiiiiiiiiiiiiiiii",
"iiiiiiiiiiiiiiiiiiiiiiiiiiiiiiiiiiiiiiiiiiiiiiiiiiiiiiiiiiiiiiii",
"iiiiiiiiiiiiiiiiiiiiiiiiiddccccccd.iiiiiiiiiiiiiiiiiiiiiiiiiiiii",
"iiiiiiiiiiiiiiiiiiiiiiidcchhhhhhhhc..iiiiiiiiiiiiiiiiiiiiiiiiiii",
"iiiiiiiiiiiiiiiiiiiiiicchhhhhhhhhhhh.iiiiiiiiiiiiiiiiiiiiiiiiiii",
"iiiiiiiiiiiiiiiiiiiiiechhhhhhhhhhhhhh.iiiiiiiiiiiiiiiiiiiiiiiiii",
"iiiiiiiiiiiiiiiiiiiiiechhhhhhhhhhhhhh.iiiiiiiiiiiii..iiiiiiiiiii",
"iiiiiiiiiiiiiiiiiiiiiecchhhhhhhhhhhhc.iiiiiiiiiiie.ggadeiiiiiiii",
"iiiiiiiiiiiiiiiiiiiiieccchhhhhhhhhhc..iiiiiiiiiie.gggggadiiiiiii",
"iiiiiiiiiiiiiiiiiiiiiidc.ccchhhhhcc..iiiiiiiiiiid.ggggggg.iiiiii",
"iiiiiiiiiiiiiiiiiiiiiiid...hhhhccc..iiiiiiiiiiiia.gggggggg.iiiii",
"iiiiiiiiiiiiiiiiiiiiiiidbhc.......h.iiiiiiiiiiiia..gggggggg.iiii",
"iiiiiiiiiiiiiiiiiiiiiiidbhhhhhhhhhh.iiiiiiiiiiid.g.ggggggggg.iii",
"iiiiiiiiiiiiiiiiiiiiiiidbhhhhhhhhhh.iiiiiiiiiidagag..ggggggg.iii",
"iiiiiiiiiiiiiiiiiiiiiiiebhhhhhhhhhh.iiiiiiiiidaggagga.ggggggg.ii",
"iiiiiiiiiie#...iiiiiiiiebhhhhhhhhhh.iiiiiiiidaggggagg..gggggg.ii",
"iiiiiiiie#ffff...iiiiiiebhhhhhhhhhh.eiiiiiidaggggggagga..gggg.ii",
"iiiiiiid#ffffff#.iiiiiiebhhhhhhhhhh.eiiiii#aggggggggaggaa.ggg.ii",
"iiiiiidffffffff##.iiiiiebhhhhhhhhhh.eiiid.aggggggggggaagga...iii",
"iiiiidffffffff#f#.iiiiidbhhhhhhhhhh.ciiaaaggggggggggggga....iiii",
"iiiiefffffffff#f#.iiiiibbhhhhhhhhhh.beia.gggggggggggggga.iiiiiii",
"iiii#ffffffff##f##.iiiic.hhhhhhhhhh.cei..ggggggggggggga.iiiiiiii",
"iiidfffffffff#f#ff.diiid..bhhhhhhbb..iia.aggggggggggga.iiiiiiiii",
"iiidffffffffff#ffff..iii..b........deiiea.gggggggggga.iiiiiiiiii",
"iii#fffffff#f#ffffff.diiieed...ccdeiiiiia.agggggggga.iiiiiiiiiii",
"iii#fffff##f#ffffffff..iiiiii..eiiiiiiiieaa.gggggga.iiiiiiiiiiii",
"iiie#####fffffffffffff#.deiii..eiiiiiiiie.aa.aggga.iiiiiiiiiiiii",
"iiiie##f###ffffffffffff...eii..eiiiiiiie...da..a.a.iiiiiiiiiiiii",
"iiiiiiedd#ffffffffffffff#.dii..eiiiiiie......aaaa..iiiiiiiiiiiii",
"iiiiiiiiid#ffffffffffffff.dii..eiiiiii..diiii....iiiiiiiiiiiiiii",
"iiiiiiiiiid#fffffffffffff.eii..eiiiii..eiiiiiiiiiiiiiiiiiiiiiiii",
"iiiiiiiiiiid#fffffffffff#.iii..eiiii..eiiiiiiiiiiiiiiiiiiiiiiiii",
"iiiiiiiiiiiid#ffffffffff.diii..eiiid.eiiiiiiiiiiiiiiiiiiiiiiiiii",
"iiiiiiiiiiiiid#ffffffff..iiiii.eii..eiiiiiiiiiiiiiiiiiiiiiiiiiii",
"iiiiiiiiiiiiiid#ffffff..eiiiii.eid.iiiiiiiiiiiiiiiiiiiiiiiiiiiii",
"iiiiiiiiiiiiiie.#fff#....eiiii.e..iiiiiiiiiiiiiiiiiiiiiiiiiiiiii",
"iiiiiiiiiiiiiiid..#..die..eiii..diiiiiiiiiiiiiiiiiiiiiiiiiiiiiii",
"iiiiiiiiiiiiiiiiddddiiiie..eii..iiiiiiiiiiiiiiiiiiiiiiiiiiiiiiii",
"iiiiiiiiiiiiiiiiiiiiiiiiii.eee.iiiiiiiiiiiiiiiiiiiiiiiiiiiiiiiii",
"iiiiiiiiiiiiiiiiiiiiiiiiiii.dediiiiiiiiiiiiiiiiiiiiiiiiiiiiiiiii",
"iiiiiiiiiiiiiiiiiiiiiiiiiiii.ddiiiiiiiiiiiiiiiiiiiiiiiiiiiiiiiii",
"iiiiiiiiiiiiiiiiiiiiiiiiiiiii..iiiiiiiiiiiiiiiiiiiiiiiiiiiiiiiii",
"iiiiiiiiiiiiiiiiiiiiiiiiiiiiiiediiiiiiiiiiiiiiiiiiiiiiiiiiiiiiii",
"iiiiiiiiiiiiiiiiiiiiiiiiiiiiiii..iiiiiiiiiiiiiiiiiiiiiiiiiiiiiii",
"iiiiiiiiiiiiiiiiiiiiiiiiiiiiiiiii.iiiiiiiiiiiiiiiiiiiiiiiiiiiiii",
"iiiiiiiiiiiiiiiiiiiiiiiiiiiiiiiiii.iiiiiiiiiiiiiiiiiiiiiiiiiiiii",
"iiiiiiiiiiiiiiiiiiiiiiiiiiiiiiiiiii.iiiiiiiiiiiiiiiiiiiiiiiiiiii",
"iiiiiiiiiiiiiiiiiiiiiiiiiiiiiiiiiiiiiiiiiiiiiiiiiiiiiiiiiiiiiiii",
"iiiiiiiiiiiiiiiiiiiiiiiiiiiiiiiiiiiiiiiiiiiiiiiiiiiiiiiiiiiiiiii",
"iiiiiiiiiiiiiiiiiiiiiiiiiiiiiiiiiiiiiiiiiiiiiiiiiiiiiiiiiiiiiiii",
"iiiiiiiiiiiiiiiiiiiiiiiiiiiiiiiiiiiiiiiiiiiiiiiiiiiiiiiiiiiiiiii",
"iiiiiiiiiiiiiiiiiiiiiiiiiiiiiiiiiiiiiiiiiiiiiiiiiiiiiiiiiiiiiiii",
"iiiiiiiiiiiiiiiiiiiiiiiiiiiiiiiiiiiiiiiiiiiiiiiiiiiiiiiiiiiiiiii",
"iiiiiiiiiiiiiiiiiiiiiiiiiiiiiiiiiiiiiiiiiiiiiiiiiiiiiiiiiiiiiiii",
"iiiiiiiiiiiiiiiiiiiiiiiiiiiiiiiiiiiiiiiiiiiiiiiiiiiiiiiiiiiiiiii",
"iiiiiiiiiiiiiiiiiiiiiiiiiiiiiiiiiiiiiiiiiiiiiiiiiiiiiiiiiiiiiiii"
};
