/* XPM */
static char *mini-script_file_ins[] = {
/* width height num_colors chars_per_pixel */
"    16    16        5            1",
/* colors */
". c #b2c0dc",
"# c #708090",
"a c #d3d3d3",
"b c #f5deb3",
"c c #6699ff",
/* pixels */
"..##########....",
"..#aaaaaaaa##...",
"..#aaaaaaaa#b#..",
"..#aaaaaaaa####.",
"..#aaaaaaaaaaa#.",
"..#aaaaaaaaaaa#.",
"..#aa##a#####a##",
"#.#aaaa#a###a###",
"#.#a#a##aaaaaa##",
"..#aaaaaaaaaaa#.",
"..#aaaaaaaaaaa#.",
"..#aaaaaaaaaaa#.",
"..#aaaaaaaaaaa#.",
"..#aaaaaaaaaaa#.",
"..#aaaaaaaaaaa#.",
"..#aaaaaaaaaaa#."
};
