/* XPM */
static char *mini-shell_ins[] = {
/* width height num_colors chars_per_pixel */
"    16    16        4            1",
/* colors */
". s mask c None",
"# c #d3d3d3",
"a c #7f7f7f",
"b c #bfbfbf",
/* pixels */
"................",
"....#....##.....",
".....ab..##a....",
".....ab..##a....",
".....ab..##a....",
".###.#########..",
".###.#########a.",
"..aa.aaaa##aaaa.",
".....a...##a....",
".###.#########..",
".###.#########a.",
"..aa.aaaa##aaaa.",
".....ab..##a....",
".....ab..##a....",
"....#ab..##a....",
"....aab...aa...."
};
