/* XPM */
static char *mini-complexconf[] = {
/* width height num_colors chars_per_pixel */
"    32    32        6            1",
/* colors */
". s mask c None",
"# c #c0c0c0",
"a c #808080",
"b c #000000",
"c c #ff0000",
"d c #800000",
/* pixels */
"................................",
"................................",
"................................",
"................................",
"................................",
"................................",
"................................",
"................................",
"................................",
".........abba#..................",
"........acba##abba#.............",
".........db#######abb...........",
".........dd###########..........",
"......#babda#########b..........",
"......b###aa#########a.bb#......",
".....ada##############ba#aa.....",
".....#cb##################d.....",
"......bcdddb####abb#######a.....",
".......bbddc###baaab###abbb.....",
".........#aca##a..aba##a##......",
"...........dd###b.aa###b........",
"...........bdbbbb#abaaad#.......",
"...........abddd#.bddddd#.......",
"..................bbbbbb........",
"................................",
"................................",
"................................",
"................................",
"................................",
"................................",
"................................",
"................................"
};
