/* XPM */
static char *mini-prjconf[] = {
/* width height num_colors chars_per_pixel */
"    32    32        8            1",
/* colors */
". s mask c None",
"# c #c0c0c0",
"a c #808080",
"b c #000000",
"c c #800000",
"d c #808000",
"e c #000080",
"f c #800080",
/* pixels */
"................................",
"................................",
"................................",
"................................",
"................................",
"................................",
"...................abaaaaa..aa..",
"...##..............a.####b#.a#..",
"....a..............a#aaa#b##b...",
"....aaa............ba.###bbab...",
"....a..a...........a..#a##aa....",
"....#...a.........a#baabaab.....",
"....##....a.....#a.#aa..........",
"....####.bb..abb...#b...........",
".....###.b##a....###............",
".....b###ba####abbb#............",
".....bbaa##bbbcbb##a............",
".......ab.#a##abdaad............",
"..........#d####cdda#da.........",
".........#a###bbccbcda#dcaa.....",
"........a#.#aaabba.cbcdaddb.....",
"......bb..##a#......abcdddb.....",
"......b####b.........abcddb.....",
"......b###a............bccb.....",
"........................#.......",
"................................",
"................................",
"................................",
"................................",
"................................",
"................................",
"................................"
};
