/* XPM */
static char *mini-exit[] = {
/* width height num_colors chars_per_pixel */
"    32    32        5            1",
/* colors */
". s mask c None",
"# c #808080",
"a c #c0c0c0",
"b c #000000",
"c c #800000",
/* pixels */
"................................",
"................................",
"................................",
".............bbba...............",
".............b###b#.............",
"............#bbb###bb#..........",
".......a#bbb##bbbb####bba.......",
".....bbbb#####bbb.#b####bbb.....",
".....b#####bb#bbb...abb###bb....",
".....b###bb#b#bab......a###b....",
".....b##b###b#ba#.......###b....",
".....b##b###babaa.......###b....",
".....b######babaa.......###a....",
".....b####aacabaa.......##ba....",
".....b###a#aaaba.......a##b.....",
".....b##aaaaaaaa.......a##b.....",
".....baa#aaaaaaa.......a##b.....",
".....b##.#aa#aa#.......a##b.....",
".....b#a#acb#aa#.......a##b.....",
".....baaaaa#a#a#.......a##b.....",
".....baaaaa#a#a#.......a###.....",
".....ba#aaa#a##b.......a###.....",
".....baca#b#a#.........a###.....",
".....babbaaa...........a##......",
".....baaaa#a...........a#b......",
".....baaba.............##b......",
".....bba...............a#b......",
".........................#......",
"................................",
"................................",
"................................",
"................................"
};
