/* XPM */
static char * toolbar_rqs_xpm[] = {
/* width height num_colors chars_per_pixel */
"32 32 2 1",
/* colors */
"c	s mask c None",
".	c #008080",
/* pixels */
"cccccccccccccccccccccccccccccccc",
"cccccccccccccccccccccccccccccccc",
"cccccccccccccccccccccccccccccccc",
"cccccccccccccccccccccccccccccccc",
"cccccccccccccccccccccccccccccccc",
"cccccccccccccccccccccccccccccccc",
"cccccccccccccccccccccccccccccccc",
"cccccccccccccc..........cccccccc",
"ccccccccccccc............ccccccc",
"cccccccccccc..............cccccc",
"ccccccccccc................ccccc",
"cccccccccc................cccccc",
"cccccccccc...............ccccccc",
"cccccccccc..............cccccccc",
"cccccccccc........cccccccccccccc",
"cccccccccc........cccccccccccccc",
"cccccccccc........cccccccccccccc",
"cccccccccc........cccccccccccccc",
"cccccccccc........cccccccccccccc",
"cccccccccc........cccccccccccccc",
"cccccccccc........cccccccccccccc",
"cccccccccc........cccccccccccccc",
"cccccccccc........cccccccccccccc",
"cccccccccccccccccccccccccccccccc",
"cccccccccccccccccccccccccccccccc",
"cccccccccccccccccccccccccccccccc",
"cccccccccccccccccccccccccccccccc",
"cccccccccccccccccccccccccccccccc",
"cccccccccccccccccccccccccccccccc",
"cccccccccccccccccccccccccccccccc",
"cccccccccccccccccccccccccccccccc",
"cccccccccccccccccccccccccccccccc"};
