/* XPM */
static char *mini-submit[] = {
/* width height num_colors chars_per_pixel */
"    32    32        5            1",
/* colors */
". s mask c None",
"# c #c0c0c0",
"a c #808080",
"b c #000000",
"c c #ffff00",
/* pixels */
"................................",
"................................",
"................................",
"................................",
"................................",
"................................",
"................................",
"................................",
"................................",
"................................",
"................................",
"................................",
".#..#aabbba#.......b............",
".#a#.......a......bcbb..........",
"....#aaaaa#......baccccbb.......",
"...a.............babbbacccb.....",
"...#b..........bccccccccbbccbb..",
".....aba#....bcccccccccccccccbb.",
".................bbbbbbbb.......",
"........aa##....................",
"................................",
"................................",
"................................",
"................................",
"................................",
"................................",
"................................",
"................................",
"................................",
"................................",
"................................",
"................................"
};
