/* XPM */
static char *mini-ckptconf[] = {
/* width height num_colors chars_per_pixel */
"    32    32        9            1",
/* colors */
". s mask c None",
"# c #c0c0c0",
"a c #000000",
"b c #800000",
"c c #ff0000",
"d c #808080",
"e c #800080",
"f c #ffff00",
"g c #808000",
/* pixels */
"................................",
"................................",
"................................",
"................................",
"................................",
"................................",
"................................",
"..............#.................",
".............#######............",
"........##.ddcccccd#............",
".......##dd..cccccccd#..........",
"........da.#aaaaabccca#.........",
".......#a##aaaaaaaaac.a.........",
"......##a.aa.....daaa##d........",
"......#dd.ad.......aaa.a........",
".......aa##d.......#aa.a........",
".......af#.d.......da#.a........",
".......#ga#cc#....aad##g........",
".......#afacccccccccc.af........",
"........#aaaaccddddccagd........",
".........dadaaaaaaaaagg#........",
".........##afdaaaaaaff..........",
"...........#affaaafg#...........",
"............##daad#.............",
"................................",
"................................",
"................................",
"................................",
"................................",
"................................",
"................................",
"................................"
};
