/* XPM */
static char *mini-qcontrol[] = {
/* width height num_colors chars_per_pixel */
"    32    32        6            1",
/* colors */
". s mask c None",
"# c #c0c0c0",
"a c #808080",
"b c #000000",
"c c #800000",
"d c #ff0000",
/* pixels */
"................................",
"................................",
"................................",
"................................",
"................................",
"................................",
"................................",
"...........#bbbbbbbb............",
"..........bbba..#.abbb..........",
".........bb#..aa....abb.........",
"........bb........#c.#bb........",
".......#b#.....a.cda..ab........",
".......bb...#..aadd....bb.......",
".......ba....b...dc....#b.......",
".......b.....a##da......b.......",
".......b.#.bbbbddbbba.a#b.......",
".......b.ab...cda#...aa.b.......",
".......b......daa#......b.......",
".......ba...cca#..b....#b.......",
".......bb...#cc#.......bb.......",
".......#ba....c.......ab........",
"........bb#....a.....#bb........",
".........bba...aa...abb.........",
"..........abba#..#abbb..........",
"............aaaaaaaa............",
"................................",
"................................",
"................................",
"................................",
"................................",
"................................",
"................................"
};
