/* XPM */
static char *mini-jobcontrol[] = {
/* width height num_colors chars_per_pixel */
"    32    32        6            1",
/* colors */
". s mask c None",
"# c #808080",
"a c #000000",
"b c #c0c0c0",
"c c #800000",
"d c #ff0000",
/* pixels */
"................................",
"................................",
"................................",
"................................",
"................................",
"...............##...............",
"...............##...............",
"...............##...............",
"........a#..b#aaaabb..#a........",
"........##b##########b##........",
".........#a##a.aa.###a#.........",
".........####..##..b###.........",
"........b#####.##.#####b........",
"........##a.##aaaa##.###........",
"........a#...##cc##...#a........",
".....#a####aa#ddddaaa#a#aa#.....",
".....####a####dddd####a####.....",
"......b.a#..ba#dd#ab..##.b......",
"........###.##a##a##.b#c........",
"........b#####.##.###a##........",
".........###b..##..b##c.........",
".........###a..aa..a###.........",
"........##b###aaaa######........",
"........##..#a####a#..##........",
"...............#a...............",
"...............##...............",
"...............##...............",
"................................",
"................................",
"................................",
"................................",
"................................"
};
