/* XPM */
static char *toolbar_ticket[] = {
/* width height num_colors chars_per_pixel */
"    32    32        6            1",
/* colors */
". s mask c None",
"# c #c0c0c0",
"a c #000000",
"b c #808080",
"c c #ffff00",
"d c #800000",
/* pixels */
"................................",
"................................",
"................................",
"................................",
"................................",
"................................",
"................................",
"................................",
"................................",
"......aaba......................",
"..accac#bca...a#bb..............",
"..bccabbccc#abaaa#aa......ab....",
"...accbccccab####bbbaaaaaaa##b#.",
"...##cccccaaaa#######ba#.#b####.",
"....aca#ccaabbbb######a..a#####.",
"....###bb####bba.####ba..a#####.",
".....a##a.#bbbba.####a#.#b#####.",
"........bb###a#a.####a..a######.",
".........a.#babaa####a..ab#b##..",
"..........a.##abaaabb#.#abbbb#..",
"..........#abaab..##a..abbbbb#..",
"................bbbba.aabbaab#..",
"......................aaaaadb#..",
"......................#bbaaaa#..",
"..........................###...",
"................................",
"................................",
"................................",
"................................",
"................................",
"................................",
"................................"
};
