/* XPM */
static char *mini-manop[] = {
/* width height num_colors chars_per_pixel */
"    32    32        9            1",
/* colors */
". s mask c None",
"# c #c0c0c0",
"a c #000000",
"b c #808080",
"c c #800000",
"d c #ff0000",
"e c #000080",
"f c #008080",
"g c #808000",
/* pixels */
"................................",
"................................",
"................................",
"................................",
"................................",
"................................",
"................................",
"................babbb#bdd.......",
"...............bbb.#.#bc........",
".............#b.#b#####c........",
"..........#bba.#.a##a#ba........",
".......##ab.#.b#.a##a#ad........",
".....#abb#abe#.e#bbba#cd........",
".....a#bbbbbb##a##a#.bcd........",
"....bbbbbbbcbbb##a#...cd........",
"....bbbabbbb...#cb...abc........",
"....#a#cb....b##bbb..cb#........",
".....#bb....b########bbba.......",
"..........b###########aba.......",
".......b.b############baa.......",
"......b###bab#######bg#b........",
"......#a#####aab###ab...........",
".......bbaab###.b#ba............",
"..........baab#ab#ab............",
".............bbb#ba.............",
"................................",
"................................",
"................................",
"................................",
"................................",
"................................",
"................................"
};
