/* XPM */
static char *mini-browser[] = {
/* width height num_colors chars_per_pixel */
"    32    32        6            1",
/* colors */
". s mask c None",
"# c #c0c0c0",
"a c #808080",
"b c #000000",
"c c #800000",
"d c #ff0000",
/* pixels */
"................................",
"................................",
"................................",
"................................",
"................................",
"................................",
"................................",
"................................",
"...........abbba................",
"..........bcaba#ba..............",
".........ac#..#b##a.............",
".........b#a....a#ab............",
".........b#b.....a#aa...........",
".........abaa.....b#a...........",
"..........b#a#....a#a...........",
"..........#b#b#...##a...........",
"...........aa#ba..#aa...........",
"............#aa#bbbba...........",
"..............#abbbdb...........",
"..................aacb..........",
"...................adba.........",
"....................bdaa........",
"....................#bdb#.......",
".....................acdb.......",
"......................addb......",
".......................bdb......",
"........................a#......",
"................................",
"................................",
"................................",
"................................",
"................................"
};
