/* XPM */
static char *mini-xterm-sun[] = {
/* width height num_colors chars_per_pixel */
"    32    19        8            1",
/* colors */
". s mask c none",
"# c #8c8c8c",
"a c #c2c2c2",
"b c #4e4e4e",
"c c #4000bf",
"d c #273a0e",
"e c #ffffff",
"f c #000000",
/* pixels */
"................................",
".......ccc...##############.....",
"......ccccc.#aaaaaaaaaaaaaab....",
".....ccccccc#addddddddddddabb...",
"....cccccccccaddddddddddddabb...",
"...cccccccccccddddddddddddabbb..",
"..cccc.cccccccddddddddddddabbb..",
".ccccccc.cccccccddddddddddabbb..",
".ccccccc.cccccccddddddddddabbb..",
"...ccccccc.ccccdddddddddddabbb..",
"...cccccccccccdddddddddddaabb...",
"....cccccccccaaaaaaaaaaaaaab....",
".....ccccccc...#############b...",
"......ccccc..baaaaaaaaaaaaabb#.#",
".......ccc..bbbbbbbbbbbbbbabb..#",
"...........baaaaaaaaaaaaab...bbb",
"...........aaaaaaaaaaaaab..bab#b",
"..........aaaaaaaaaaaaab...###b.",
"................................"
};
