/* XPM */
static char *mini-xterm-cray[] = {
/* width height num_colors chars_per_pixel */
"    32    19        8            1",
/* colors */
". s mask c none",
"# c #8c8c8c",
"a c #c2c2c2",
"b c #00004f",
"c c #273a0e",
"d c #ffffff",
"e c #4e4e4e",
"f c #000000",
/* pixels */
"................................",
".............##############.....",
"...bbbb.bbbb#accddccbdccccbe....",
"..b.....b..b#caabbdccbdccbaee...",
"..b.....bbbb#cdbaabdccbdbdcee...",
"..b.....b..b#dbbbbbbdccbdcceee..",
"...bbbb.b...bbdccccdbccbdcceee..",
"............#cccccccccccccceee..",
"............#cccccccccccccceee..",
"............#cccccccccccccceee..",
"............#ccccccccccccccee...",
".............aaaaaaaaaaaaaae....",
"...............#############e...",
".............eaaaaaaaaaaaaaee#.#",
"............eeeeeeeeeeeeeeaee..#",
"...........eaaaaaaaaaaaaae...eee",
"...........aaaaaaaaaaaaae..eae#e",
"..........aaaaaaaaaaaaae...###e.",
"................................"
};
