/* XPM */
static char *mini-xterm-ibm[] = {
/* width height num_colors chars_per_pixel */
"    32    19        7            1",
/* colors */
". s mask c none",
"# c #1535ff",
"a c #d5d5d4",
"b c #747170",
"c c #4a4117",
"d c #ffffff",
"e c #150517",
/* pixels */
"................................",
"................................",
".............aaaaaaaaaaaaaab....",
".............a..c...ccccccabb...",
".............a......ccccccabb...",
".............ac...c.ccccccabbb..",
".............acc.cc.ccccccabbb..",
".............acc.cc.ccccccabbb..",
".............acc.cc..cccccabbb..",
".............accccccccccccabbb..",
".............acccccccccccaabb...",
".............aaaaaaaaaaaaaab....",
"............................b...",
".............baaaaaaaaaaaaabb...",
"............bbbbbbbbbbbbbbabb...",
"...........baaaaaaaaaaaaab...bbb",
"...........aaaaaaaaaaaaab..bab.b",
"..........aaaaaaaaaaaaab......b.",
"................................"
};
