/* XPM */
static char *mini-xterm-hp[] = {
/* width height num_colors chars_per_pixel */
"    32    19        8            1",
/* colors */
". s mask c none",
"# c #8c8c8c",
"a c #c2c2c2",
"b c #4e4e4e",
"c c #273a0e",
"d c #0000ff",
"e c #ffffff",
"f c #000000",
/* pixels */
"................................",
".............##############.....",
"............#aaaaaaaaaaaaaab....",
"............#accccccccccccabb...",
"......dddd.dddccccccccccccabb...",
".....ddd.d..dddcccccccccccabbb..",
".....dd.dd.d.ddcccccccccccabbb..",
".....dd.dd...ddcccccccccccabbb..",
".....dd...d.dddcccccccccccabbb..",
"......ddd..dddccccccccccccabbb..",
"............#acccccccccccaabb...",
".............aaaaaaaaaaaaaab....",
"...............#############b...",
".............baaaaaaaaaaaaabb#.#",
"............bbbbbbbbbbbbbbabb..#",
"...........baaaaaaaaaaaaab...bbb",
"...........aaaaaaaaaaaaab..bab#b",
"..........aaaaaaaaaaaaab...###b.",
"................................"
};
