/* XPM */
static char *mini-xterm-linux[] = {
/* width height num_colors chars_per_pixel */
"    32    19        8            1",
/* colors */
". s mask c none",
"# c #ff0000",
"a c #8c8c8c",
"b c #c2c2c2",
"c c #4e4e4e",
"d c #273a0e",
"e c #ffffff",
"f c #000000",
/* pixels */
"................................",
".##........#.aa#aaaaaaaaaaa.....",
".#.#....#.#.#b#bbbbbbbbbbbbc....",
".#.#.#..#.#.#b#dddddddddddbcc...",
".#.#..#.##..a#ddddddddddddbcc...",
".#..........##ddddddddddddbccc..",
".###########ab#dddddddddddbccc..",
"..........#.abd#ddddddddddbccc..",
"............abddddddddddddbccc..",
"............abddddddddddddbccc..",
".............bdddddddddddbbcc...",
"..............bbbbbbbbbbbbbc....",
"...............aaaaaaaaaaaaac...",
"................bbbbbbbbbbbcca.a",
"............ccccccccccccccbcc..a",
"...........cbbbbbbbbbbbbbc...ccc",
"...........bbbbbbbbbbbbbc..cbcac",
"..........bbbbbbbbbbbbbc...aaac.",
"................................"
};
