/* XPM */
static char *mini-xterm-axp[] = {
/* width height num_colors chars_per_pixel */
"    32    19        8            1",
/* colors */
". s mask c none",
"# c #8c8c8c",
"a c #c2c2c2",
"b c #4e4e4e",
"c c #bb0000",
"d c #273a0e",
"e c #ffffff",
"f c #000000",
/* pixels */
"................................",
".............##############.....",
"............#aaaaaaaaaaaaaab....",
".c.c.ccc.cccccddddddddddddabb...",
".c..c..ccc.c#cddddddddddddabb...",
".c..c..ccc.cccddddddddddddabbb..",
".c.cc.cc.ccc#addddddddddddabbb..",
".....ccc....#addddddddddddabbb..",
"............#addddddddddddabbb..",
"............#addddddddddddabbb..",
"............#adddddddddddaabb...",
".............aaaaaaaaaaaaaab....",
"...............#############b...",
".............baaaaaaaaaaaaabb#.#",
"............bbbbbbbbbbbbbbabb..#",
"...........baaaaaaaaaaaaab...bbb",
"...........aaaaaaaaaaaaab..bab#b",
"..........aaaaaaaaaaaaab...###b.",
"................................"
};
