/* XPM */
static char *mini-xterm-sgi[] = {
/* width height num_colors chars_per_pixel */
"    32    19        8            1",
/* colors */
". s mask c none",
"# c #7171c6",
"a c #8c8c8c",
"b c #c2c2c2",
"c c #4e4e4e",
"d c #273a0e",
"e c #ffffff",
"f c #000000",
/* pixels */
"................................",
".......####..aaaaaaaaaaaaaa.....",
"......#.##.#.bbbbbbbbbbbbbbc....",
".....#..##..#bddddddddddddbcc...",
".....#..##..#bddddddddddddbcc...",
"...##.#.##.#.##dddddddddddbccc..",
"...#.#.####.#b#dddddddddddbccc..",
"...#..######.b#dddddddddddbccc..",
"...#..##..##.b#dddddddddddbccc..",
"...#.#.####.#b#dddddddddddbccc..",
"...##.#.##.#.##ddddddddddbbcc...",
".....#..##..#abbbbbbbbbbbbbc....",
".....#..##..#..aaaaaaaaaaaaac...",
"......#.##.#.cbbbbbbbbbbbbbcca.a",
".......####.ccccccccccccccbcc..a",
"...........cbbbbbbbbbbbbbc...ccc",
"...........bbbbbbbbbbbbbc..cbcac",
"..........bbbbbbbbbbbbbc...aaac.",
"................................"
};
